<svg id="svg" version="1.1" xmlns="http://www.w3.org/2000/svg" xmlns:xlink="http://www.w3.org/1999/xlink" width="400" height="400" viewBox="0, 0, 400,400"><g id="svgg"><path id="path0" d="M184.946 211.800 C 184.863 212.020,184.841 250.810,184.897 298.000 L 185.000 383.800 195.600 383.912 C 201.430 383.974,206.605 383.926,207.100 383.805 L 208.000 383.585 208.000 297.780 C 208.000 229.502,207.898 211.937,207.500 211.789 C 206.437 211.393,185.096 211.403,184.946 211.800 " stroke="none" fill="#f9f9f9" fill-rule="evenodd"></path><path id="path1" d="M185.600 30.600 C 185.600 31.093,184.889 31.200,181.600 31.200 C 178.311 31.200,177.600 31.307,177.600 31.800 C 177.600 32.269,177.053 32.401,175.100 32.405 C 172.054 32.412,170.800 32.716,170.800 33.447 C 170.800 33.844,170.236 34.000,168.800 34.000 C 167.289 34.000,166.800 34.147,166.800 34.600 C 166.800 35.045,166.332 35.200,164.987 35.200 C 163.745 35.200,163.102 35.389,162.945 35.800 C 162.811 36.148,162.213 36.400,161.520 36.400 C 160.662 36.400,160.266 36.625,160.116 37.200 C 159.968 37.767,159.570 38.000,158.753 38.000 C 157.995 38.000,157.600 38.205,157.600 38.600 C 157.600 39.019,157.178 39.200,156.200 39.200 C 155.222 39.200,154.800 39.381,154.800 39.800 C 154.800 40.204,154.396 40.400,153.563 40.400 C 152.662 40.400,152.268 40.617,152.116 41.200 C 151.968 41.767,151.570 42.000,150.753 42.000 C 149.995 42.000,149.600 42.205,149.600 42.600 C 149.600 43.001,149.199 43.200,148.387 43.200 C 147.679 43.200,147.079 43.449,146.945 43.800 C 146.818 44.130,146.464 44.400,146.157 44.400 C 145.851 44.400,145.600 44.760,145.600 45.200 C 145.600 45.824,145.333 46.000,144.387 46.000 C 143.679 46.000,143.079 46.249,142.945 46.600 C 142.818 46.930,142.464 47.200,142.157 47.200 C 141.851 47.200,141.600 47.470,141.600 47.800 C 141.600 48.130,141.330 48.400,141.000 48.400 C 140.667 48.400,140.400 48.756,140.400 49.200 C 140.400 49.733,140.133 50.000,139.600 50.000 C 139.156 50.000,138.800 50.267,138.800 50.600 C 138.800 51.000,138.400 51.200,137.600 51.200 C 136.800 51.200,136.400 51.400,136.400 51.800 C 136.400 52.130,136.113 52.400,135.763 52.400 C 135.412 52.400,135.031 52.760,134.916 53.200 C 134.801 53.640,134.458 54.000,134.153 54.000 C 133.849 54.000,133.600 54.270,133.600 54.600 C 133.600 54.930,133.330 55.200,133.000 55.200 C 132.670 55.200,132.400 55.449,132.400 55.753 C 132.400 56.058,132.040 56.401,131.600 56.516 C 131.160 56.631,130.800 57.012,130.800 57.363 C 130.800 57.713,130.530 58.000,130.200 58.000 C 129.870 58.000,129.600 58.270,129.600 58.600 C 129.600 58.930,129.330 59.200,129.000 59.200 C 128.670 59.200,128.400 59.470,128.400 59.800 C 128.400 60.130,128.149 60.400,127.843 60.400 C 127.231 60.400,126.800 61.241,126.800 62.433 C 126.800 62.855,126.530 63.200,126.200 63.200 C 125.870 63.200,125.600 63.470,125.600 63.800 C 125.600 64.130,125.330 64.400,125.000 64.400 C 124.670 64.400,124.400 64.687,124.400 65.037 C 124.400 65.388,124.040 65.769,123.600 65.884 C 123.160 65.999,122.800 66.342,122.800 66.647 C 122.800 66.951,122.530 67.200,122.200 67.200 C 121.800 67.200,121.600 67.600,121.600 68.400 C 121.600 69.200,121.400 69.600,121.000 69.600 C 120.667 69.600,120.400 69.956,120.400 70.400 C 120.400 70.850,120.133 71.200,119.790 71.200 C 119.435 71.200,119.082 71.691,118.945 72.374 C 118.816 73.020,118.460 73.645,118.155 73.762 C 117.850 73.879,117.600 74.521,117.600 75.187 C 117.600 75.999,117.401 76.400,117.000 76.400 C 116.581 76.400,116.400 76.822,116.400 77.800 C 116.400 78.933,116.248 79.200,115.600 79.200 C 114.978 79.200,114.800 79.467,114.800 80.400 C 114.800 81.200,114.600 81.600,114.200 81.600 C 113.781 81.600,113.600 82.022,113.600 83.000 C 113.600 83.978,113.419 84.400,113.000 84.400 C 112.581 84.400,112.400 84.822,112.400 85.800 C 112.400 86.730,112.213 87.200,111.843 87.200 C 111.145 87.200,110.800 88.071,110.800 89.833 C 110.800 90.781,110.616 91.200,110.200 91.200 C 109.747 91.200,109.600 91.689,109.600 93.200 C 109.600 94.711,109.453 95.200,109.000 95.200 C 108.528 95.200,108.400 95.756,108.400 97.800 C 108.400 99.739,108.260 100.400,107.850 100.400 C 107.258 100.400,106.800 102.078,106.800 104.250 C 106.800 105.483,106.696 105.600,105.600 105.600 C 104.817 105.600,104.400 105.802,104.400 106.182 C 104.400 106.530,103.838 106.869,103.000 107.026 C 102.198 107.177,101.600 107.526,101.600 107.845 C 101.600 108.150,101.330 108.400,101.000 108.400 C 100.605 108.400,100.400 108.795,100.400 109.557 C 100.400 110.217,100.142 110.813,99.800 110.945 C 99.289 111.141,99.200 112.634,99.200 120.987 C 99.200 129.443,99.283 130.800,99.800 130.800 C 100.219 130.800,100.400 131.222,100.400 132.200 C 100.400 133.178,100.581 133.600,101.000 133.600 C 101.330 133.600,101.600 133.870,101.600 134.200 C 101.600 134.530,101.939 134.800,102.353 134.800 C 102.770 134.800,103.200 135.157,103.316 135.600 C 103.457 136.141,103.862 136.400,104.563 136.400 C 105.218 136.400,105.600 136.621,105.600 137.000 C 105.600 137.330,105.870 137.600,106.200 137.600 C 106.587 137.600,106.802 137.991,106.805 138.700 C 106.814 140.413,107.240 141.600,107.847 141.600 C 108.261 141.600,108.400 142.253,108.400 144.200 C 108.400 146.244,108.528 146.800,109.000 146.800 C 109.453 146.800,109.600 147.289,109.600 148.800 C 109.600 150.311,109.747 150.800,110.200 150.800 C 110.616 150.800,110.800 151.219,110.800 152.167 C 110.800 153.929,111.145 154.800,111.843 154.800 C 112.245 154.800,112.400 155.357,112.400 156.800 C 112.400 158.311,112.547 158.800,113.000 158.800 C 113.401 158.800,113.600 159.201,113.600 160.013 C 113.600 160.721,113.849 161.321,114.200 161.455 C 114.530 161.582,114.800 162.133,114.800 162.680 C 114.800 163.338,115.071 163.746,115.600 163.884 C 116.169 164.033,116.400 164.430,116.400 165.259 C 116.400 165.927,116.657 166.524,117.000 166.655 C 117.330 166.782,117.600 167.136,117.600 167.443 C 117.600 167.749,117.870 168.000,118.200 168.000 C 118.604 168.000,118.800 168.404,118.800 169.237 C 118.800 170.138,119.017 170.532,119.600 170.684 C 120.167 170.832,120.400 171.230,120.400 172.047 C 120.400 172.805,120.605 173.200,121.000 173.200 C 121.333 173.200,121.600 173.556,121.600 174.000 C 121.600 174.444,121.867 174.800,122.200 174.800 C 122.530 174.800,122.800 175.070,122.800 175.400 C 122.800 175.733,123.156 176.000,123.600 176.000 C 124.224 176.000,124.400 176.267,124.400 177.213 C 124.400 177.921,124.649 178.521,125.000 178.655 C 125.330 178.782,125.600 179.136,125.600 179.443 C 125.600 179.749,125.870 180.000,126.200 180.000 C 126.530 180.000,126.800 180.270,126.800 180.600 C 126.800 180.933,127.156 181.200,127.600 181.200 C 128.133 181.200,128.400 181.467,128.400 182.000 C 128.400 182.444,128.667 182.800,129.000 182.800 C 129.330 182.800,129.600 183.070,129.600 183.400 C 129.600 183.730,129.870 184.000,130.200 184.000 C 130.530 184.000,130.800 184.270,130.800 184.600 C 130.800 184.933,131.156 185.200,131.600 185.200 C 132.133 185.200,132.400 185.467,132.400 186.000 C 132.400 186.444,132.667 186.800,133.000 186.800 C 133.330 186.800,133.600 187.070,133.600 187.400 C 133.600 187.730,133.870 188.000,134.200 188.000 C 134.530 188.000,134.800 188.270,134.800 188.600 C 134.800 188.933,135.156 189.200,135.600 189.200 C 136.133 189.200,136.400 189.467,136.400 190.000 C 136.400 190.444,136.667 190.800,137.000 190.800 C 137.330 190.800,137.600 191.070,137.600 191.400 C 137.600 191.730,137.851 192.000,138.157 192.000 C 138.464 192.000,138.818 192.270,138.945 192.600 C 139.079 192.951,139.679 193.200,140.387 193.200 C 141.333 193.200,141.600 193.376,141.600 194.000 C 141.600 194.444,141.867 194.800,142.200 194.800 C 142.530 194.800,142.800 195.070,142.800 195.400 C 142.800 195.733,143.156 196.000,143.600 196.000 C 144.044 196.000,144.400 196.267,144.400 196.600 C 144.400 197.000,144.800 197.200,145.600 197.200 C 146.533 197.200,146.800 197.378,146.800 198.000 C 146.800 198.533,147.067 198.800,147.600 198.800 C 148.044 198.800,148.400 199.067,148.400 199.400 C 148.400 199.800,148.800 200.000,149.600 200.000 C 150.400 200.000,150.800 200.200,150.800 200.600 C 150.800 201.019,151.222 201.200,152.200 201.200 C 153.333 201.200,153.600 201.352,153.600 202.000 C 153.600 202.616,153.867 202.800,154.757 202.800 C 155.417 202.800,156.013 203.058,156.145 203.400 C 156.279 203.751,156.879 204.000,157.587 204.000 C 158.399 204.000,158.800 204.199,158.800 204.600 C 158.800 205.019,159.222 205.200,160.200 205.200 C 161.125 205.200,161.600 205.388,161.600 205.753 C 161.600 206.360,162.787 206.786,164.500 206.795 C 165.209 206.798,165.600 207.013,165.600 207.400 C 165.600 207.853,166.089 208.000,167.600 208.000 C 169.111 208.000,169.600 208.147,169.600 208.600 C 169.600 209.071,170.150 209.200,172.153 209.200 C 174.370 209.200,174.734 209.305,174.916 210.000 C 175.087 210.654,175.462 210.800,176.963 210.800 L 178.800 210.800 178.800 299.000 C 178.800 377.133,178.868 387.200,179.400 387.200 C 179.733 387.200,180.000 387.556,180.000 388.000 C 180.000 388.533,180.267 388.800,180.800 388.800 C 181.244 388.800,181.600 389.067,181.600 389.400 C 181.600 390.272,210.183 390.310,210.680 389.438 C 210.856 389.130,211.450 388.815,212.000 388.738 L 213.000 388.600 213.101 299.700 L 213.202 210.800 215.838 210.800 C 218.138 210.800,218.502 210.698,218.684 210.000 C 218.866 209.305,219.230 209.200,221.447 209.200 C 223.450 209.200,224.000 209.071,224.000 208.600 C 224.000 208.147,224.489 208.000,226.000 208.000 C 227.511 208.000,228.000 207.853,228.000 207.400 C 228.000 206.984,228.419 206.800,229.367 206.800 C 231.129 206.800,232.000 206.455,232.000 205.757 C 232.000 205.405,232.441 205.200,233.200 205.200 C 234.000 205.200,234.400 205.000,234.400 204.600 C 234.400 204.181,234.822 204.000,235.800 204.000 C 236.778 204.000,237.200 203.819,237.200 203.400 C 237.200 202.996,237.604 202.800,238.437 202.800 C 239.338 202.800,239.732 202.583,239.884 202.000 C 240.032 201.433,240.430 201.200,241.247 201.200 C 242.005 201.200,242.400 200.995,242.400 200.600 C 242.400 200.181,242.822 200.000,243.800 200.000 C 244.778 200.000,245.200 199.819,245.200 199.400 C 245.200 199.070,245.470 198.800,245.800 198.800 C 246.133 198.800,246.400 198.444,246.400 198.000 C 246.400 197.352,246.667 197.200,247.800 197.200 C 248.778 197.200,249.200 197.019,249.200 196.600 C 249.200 196.270,249.470 196.000,249.800 196.000 C 250.130 196.000,250.400 195.730,250.400 195.400 C 250.400 195.070,250.745 194.800,251.167 194.800 C 252.359 194.800,253.200 194.369,253.200 193.757 C 253.200 193.451,253.470 193.200,253.800 193.200 C 254.130 193.200,254.400 192.930,254.400 192.600 C 254.400 192.267,254.756 192.000,255.200 192.000 C 255.644 192.000,256.000 191.733,256.000 191.400 C 256.000 191.070,256.270 190.800,256.600 190.800 C 256.933 190.800,257.200 190.444,257.200 190.000 C 257.200 189.556,257.467 189.200,257.800 189.200 C 258.130 189.200,258.400 188.930,258.400 188.600 C 258.400 188.267,258.756 188.000,259.200 188.000 C 259.644 188.000,260.000 187.733,260.000 187.400 C 260.000 187.070,260.270 186.800,260.600 186.800 C 260.933 186.800,261.200 186.444,261.200 186.000 C 261.200 185.556,261.467 185.200,261.800 185.200 C 262.130 185.200,262.400 184.930,262.400 184.600 C 262.400 184.270,262.670 184.000,263.000 184.000 C 263.330 184.000,263.600 183.730,263.600 183.400 C 263.600 183.067,263.956 182.800,264.400 182.800 C 264.933 182.800,265.200 182.533,265.200 182.000 C 265.200 181.556,265.467 181.200,265.800 181.200 C 266.130 181.200,266.400 180.930,266.400 180.600 C 266.400 180.270,266.670 180.000,267.000 180.000 C 267.330 180.000,267.600 179.751,267.600 179.447 C 267.600 179.142,267.960 178.799,268.400 178.684 C 268.840 178.569,269.200 178.188,269.200 177.837 C 269.200 177.487,269.470 177.200,269.800 177.200 C 270.200 177.200,270.400 176.800,270.400 176.000 C 270.400 175.200,270.600 174.800,271.000 174.800 C 271.330 174.800,271.600 174.542,271.600 174.227 C 271.600 173.912,271.960 173.540,272.400 173.400 C 272.960 173.222,273.200 172.795,273.200 171.973 C 273.200 171.197,273.403 170.800,273.800 170.800 C 274.133 170.800,274.400 170.444,274.400 170.000 C 274.400 169.556,274.667 169.200,275.000 169.200 C 275.395 169.200,275.600 168.805,275.600 168.047 C 275.600 167.230,275.833 166.832,276.400 166.684 C 276.983 166.532,277.200 166.138,277.200 165.237 C 277.200 164.404,277.396 164.000,277.800 164.000 C 278.200 164.000,278.400 163.600,278.400 162.800 C 278.400 162.000,278.600 161.600,279.000 161.600 C 279.415 161.600,279.600 161.183,279.600 160.247 C 279.600 159.230,279.799 158.841,280.400 158.684 C 280.983 158.532,281.200 158.138,281.200 157.237 C 281.200 156.404,281.396 156.000,281.800 156.000 C 282.253 156.000,282.400 155.511,282.400 154.000 C 282.400 152.489,282.547 152.000,283.000 152.000 C 283.451 152.000,283.600 151.516,283.600 150.047 C 283.600 148.430,283.738 148.057,284.400 147.884 C 285.090 147.704,285.200 147.338,285.200 145.237 C 285.200 143.337,285.332 142.800,285.800 142.800 C 286.267 142.800,286.400 142.267,286.400 140.400 C 286.400 137.945,286.946 136.890,288.531 136.282 C 288.899 136.141,289.200 135.749,289.200 135.413 C 289.200 135.076,289.470 134.800,289.800 134.800 C 290.130 134.800,290.400 134.530,290.400 134.200 C 290.400 133.870,290.670 133.600,291.000 133.600 C 291.330 133.600,291.600 133.351,291.600 133.047 C 291.600 132.742,291.960 132.399,292.400 132.284 C 293.050 132.114,293.200 131.738,293.200 130.280 C 293.200 129.054,293.390 128.413,293.800 128.255 C 294.303 128.062,294.400 126.855,294.400 120.813 C 294.400 114.668,294.311 113.600,293.800 113.600 C 293.413 113.600,293.198 113.209,293.195 112.500 C 293.186 110.787,292.760 109.600,292.153 109.600 C 291.849 109.600,291.600 109.330,291.600 109.000 C 291.600 108.670,291.330 108.400,291.000 108.400 C 290.670 108.400,290.400 108.196,290.400 107.946 C 290.400 107.155,288.398 105.600,287.379 105.600 C 286.422 105.600,286.400 105.529,286.400 102.400 C 286.400 99.822,286.283 99.200,285.800 99.200 C 285.347 99.200,285.200 98.711,285.200 97.200 C 285.200 95.467,285.093 95.200,284.400 95.200 C 283.682 95.200,283.600 94.933,283.600 92.587 C 283.600 90.634,283.449 89.917,283.000 89.745 C 282.658 89.613,282.400 89.017,282.400 88.357 C 282.400 87.595,282.195 87.200,281.800 87.200 C 281.384 87.200,281.200 86.781,281.200 85.833 C 281.200 84.071,280.855 83.200,280.157 83.200 C 279.787 83.200,279.600 82.730,279.600 81.800 C 279.600 80.822,279.419 80.400,279.000 80.400 C 278.599 80.400,278.400 79.999,278.400 79.187 C 278.400 78.521,278.150 77.879,277.845 77.762 C 277.540 77.645,277.184 77.020,277.055 76.374 C 276.918 75.691,276.565 75.200,276.210 75.200 C 275.867 75.200,275.600 74.850,275.600 74.400 C 275.600 73.956,275.333 73.600,275.000 73.600 C 274.600 73.600,274.400 73.200,274.400 72.400 C 274.400 71.645,274.195 71.200,273.847 71.200 C 273.542 71.200,273.199 70.840,273.084 70.400 C 272.969 69.960,272.588 69.600,272.237 69.600 C 271.796 69.600,271.600 69.231,271.600 68.400 C 271.600 67.600,271.400 67.200,271.000 67.200 C 270.670 67.200,270.400 66.924,270.400 66.587 C 270.400 66.251,270.130 65.871,269.800 65.745 C 269.470 65.618,269.200 65.264,269.200 64.957 C 269.200 64.651,268.840 64.400,268.400 64.400 C 267.778 64.400,267.600 64.133,267.600 63.200 C 267.600 62.400,267.400 62.000,267.000 62.000 C 266.667 62.000,266.400 61.644,266.400 61.200 C 266.400 60.756,266.133 60.400,265.800 60.400 C 265.470 60.400,265.200 60.130,265.200 59.800 C 265.200 59.467,264.844 59.200,264.400 59.200 C 263.956 59.200,263.600 58.933,263.600 58.600 C 263.600 58.270,263.330 58.000,263.000 58.000 C 262.667 58.000,262.400 57.644,262.400 57.200 C 262.400 56.756,262.133 56.400,261.800 56.400 C 261.470 56.400,261.200 56.130,261.200 55.800 C 261.200 55.470,260.930 55.200,260.600 55.200 C 260.270 55.200,260.000 54.930,260.000 54.600 C 260.000 54.267,259.644 54.000,259.200 54.000 C 258.667 54.000,258.400 53.733,258.400 53.200 C 258.400 52.756,258.133 52.400,257.800 52.400 C 257.470 52.400,257.200 52.130,257.200 51.800 C 257.200 51.467,256.844 51.200,256.400 51.200 C 255.956 51.200,255.600 50.933,255.600 50.600 C 255.600 50.200,255.200 50.000,254.400 50.000 C 253.467 50.000,253.200 49.822,253.200 49.200 C 253.200 48.760,252.949 48.400,252.643 48.400 C 252.336 48.400,251.982 48.130,251.855 47.800 C 251.729 47.470,251.349 47.200,251.013 47.200 C 250.676 47.200,250.400 46.930,250.400 46.600 C 250.400 46.200,250.000 46.000,249.200 46.000 C 248.369 46.000,248.000 45.804,248.000 45.363 C 248.000 45.012,247.640 44.631,247.200 44.516 C 246.760 44.401,246.400 44.058,246.400 43.753 C 246.400 43.405,245.955 43.200,245.200 43.200 C 244.400 43.200,244.000 43.000,244.000 42.600 C 244.000 42.181,243.578 42.000,242.600 42.000 C 241.467 42.000,241.200 41.848,241.200 41.200 C 241.200 40.748,240.933 40.400,240.587 40.400 C 240.251 40.400,239.871 40.130,239.745 39.800 C 239.588 39.393,238.950 39.200,237.757 39.200 C 236.462 39.200,236.000 39.042,236.000 38.600 C 236.000 38.181,235.578 38.000,234.600 38.000 C 233.467 38.000,233.200 37.848,233.200 37.200 C 233.200 36.552,232.933 36.400,231.800 36.400 C 230.822 36.400,230.400 36.219,230.400 35.800 C 230.400 35.347,229.911 35.200,228.400 35.200 C 226.889 35.200,226.400 35.053,226.400 34.600 C 226.400 34.147,225.911 34.000,224.400 34.000 C 222.964 34.000,222.400 33.844,222.400 33.447 C 222.400 32.780,221.181 32.413,218.943 32.405 C 217.843 32.402,217.208 32.198,217.055 31.800 C 216.873 31.325,216.032 31.200,213.013 31.200 C 209.890 31.200,209.200 31.091,209.200 30.600 C 209.200 30.080,207.622 30.000,197.400 30.000 C 187.178 30.000,185.600 30.080,185.600 30.600 M206.000 34.029 C 209.984 34.440,214.258 35.176,217.800 36.060 C 222.848 37.320,223.754 37.594,224.137 37.977 C 224.370 38.210,224.929 38.401,225.380 38.402 C 225.831 38.404,226.683 38.657,227.273 38.965 C 227.863 39.273,228.898 39.646,229.573 39.794 C 230.248 39.942,230.800 40.210,230.800 40.388 C 230.800 40.567,231.295 40.833,231.900 40.980 C 233.127 41.278,234.860 42.118,239.000 44.420 C 240.540 45.277,242.205 46.158,242.700 46.379 C 243.195 46.600,243.600 46.965,243.600 47.190 C 243.600 47.416,243.837 47.600,244.128 47.600 C 244.555 47.600,246.856 49.121,249.404 51.088 C 262.218 60.979,270.460 71.430,277.410 86.600 C 278.597 89.190,280.381 94.090,280.640 95.471 C 280.790 96.271,281.156 97.392,281.454 97.963 C 281.752 98.533,281.996 99.472,281.998 100.050 C 281.999 100.627,282.257 101.828,282.571 102.718 C 283.261 104.673,283.001 105.937,281.852 106.215 C 280.476 106.547,111.297 106.230,110.961 105.894 C 110.253 105.186,112.959 94.483,115.046 89.740 C 115.350 89.046,115.600 88.213,115.600 87.889 C 115.600 87.564,115.870 87.074,116.200 86.800 C 116.530 86.526,116.800 86.057,116.800 85.757 C 116.800 84.916,122.080 74.960,122.823 74.400 C 122.969 74.290,123.380 73.631,123.736 72.936 C 126.200 68.126,137.257 56.365,144.200 51.169 C 149.914 46.892,151.665 45.831,158.400 42.563 C 163.576 40.051,163.935 39.899,169.500 37.847 C 178.790 34.422,194.198 32.811,206.000 34.029 M283.471 108.318 C 286.031 109.220,288.053 110.747,289.262 112.691 C 290.399 114.521,290.714 127.298,289.667 129.135 C 288.712 130.812,286.324 133.200,285.602 133.200 C 285.215 133.200,284.674 133.470,284.400 133.800 C 283.960 134.330,273.706 134.400,196.528 134.400 L 109.154 134.400 107.277 133.362 C 102.687 130.823,101.998 129.228,102.006 121.156 C 102.010 116.531,102.155 114.751,102.589 114.000 C 102.906 113.450,103.338 112.640,103.549 112.200 C 104.181 110.883,106.731 109.050,108.933 108.329 C 112.235 107.249,280.404 107.238,283.471 108.318 M282.979 137.133 C 283.107 137.537,282.939 138.639,282.606 139.584 C 282.273 140.528,282.000 141.724,282.000 142.242 C 282.000 142.760,281.749 143.862,281.443 144.692 C 281.137 145.521,280.495 147.460,280.016 149.000 C 279.538 150.540,278.888 152.385,278.573 153.100 C 278.258 153.815,277.741 154.985,277.424 155.700 C 275.565 159.897,275.200 160.797,275.200 161.178 C 275.200 161.410,275.032 161.600,274.827 161.600 C 274.622 161.600,274.326 162.005,274.169 162.500 C 274.012 162.995,273.280 164.298,272.542 165.395 C 271.804 166.492,271.200 167.535,271.200 167.712 C 271.200 168.022,267.848 172.727,266.704 174.023 C 266.402 174.365,265.478 175.535,264.651 176.623 C 258.210 185.090,245.083 195.556,235.400 199.944 C 227.741 203.415,226.797 203.792,222.600 205.055 C 219.106 206.107,215.895 206.862,212.600 207.407 C 210.840 207.698,208.590 208.126,207.600 208.358 C 205.341 208.888,188.424 208.901,186.000 208.374 C 185.010 208.159,183.120 207.823,181.800 207.626 C 176.805 206.883,168.615 204.547,165.468 202.968 C 164.845 202.656,164.137 202.400,163.894 202.400 C 163.651 202.400,162.721 202.062,161.826 201.648 C 160.932 201.235,159.930 200.786,159.600 200.651 C 159.270 200.516,158.730 200.237,158.400 200.031 C 158.070 199.826,157.530 199.554,157.200 199.428 C 155.540 198.791,151.260 196.134,144.546 191.572 C 139.546 188.175,132.616 181.329,127.770 175.000 C 125.918 172.580,124.131 170.248,123.801 169.819 C 123.470 169.389,123.200 168.804,123.200 168.519 C 123.200 168.233,123.065 167.999,122.900 167.997 C 122.378 167.993,116.800 157.618,116.800 156.651 C 116.800 156.347,116.530 155.874,116.200 155.600 C 115.870 155.326,115.600 154.836,115.600 154.511 C 115.600 154.187,115.338 153.354,115.018 152.660 C 114.100 150.673,113.170 147.949,112.785 146.120 C 112.591 145.196,112.259 144.116,112.048 143.720 C 111.507 142.702,110.681 137.316,110.990 136.816 C 111.525 135.951,282.704 136.267,282.979 137.133 M192.472 210.892 C 196.221 211.216,198.673 211.211,201.872 210.872 C 207.364 210.289,208.084 210.292,208.471 210.902 C 209.027 211.777,208.877 383.763,208.320 384.320 C 207.695 384.945,185.533 385.006,184.374 384.386 C 183.612 383.979,183.600 382.581,183.600 297.373 L 183.600 210.774 184.500 210.399 C 184.995 210.192,185.850 210.120,186.400 210.238 C 186.950 210.357,189.682 210.651,192.472 210.892 " stroke="none" fill="#352b2e" fill-rule="evenodd"></path><path id="path2" d="M183.600 35.269 C 182.830 35.482,181.030 35.832,179.600 36.047 C 178.170 36.263,176.693 36.607,176.317 36.812 C 175.942 37.017,174.862 37.305,173.917 37.452 C 172.973 37.598,171.845 37.962,171.411 38.259 C 170.977 38.557,170.077 38.806,169.411 38.813 C 168.745 38.820,167.851 39.090,167.424 39.413 C 166.996 39.736,166.386 40.000,166.067 40.000 C 165.749 40.000,164.748 40.345,163.844 40.768 C 162.940 41.190,161.930 41.639,161.600 41.765 C 161.270 41.892,160.685 42.176,160.300 42.397 C 159.915 42.619,159.285 42.981,158.900 43.203 C 158.515 43.424,157.930 43.709,157.600 43.835 C 153.646 45.351,144.044 51.818,139.267 56.182 C 137.682 57.631,131.970 63.378,131.400 64.098 C 131.180 64.376,129.996 65.863,128.770 67.402 C 127.543 68.941,126.200 70.740,125.784 71.400 C 125.369 72.060,124.573 73.210,124.015 73.956 C 122.543 75.923,119.575 81.253,118.422 84.000 C 118.191 84.550,117.852 85.270,117.668 85.600 C 116.722 87.302,116.000 88.916,115.998 89.332 C 115.996 89.590,115.752 90.267,115.454 90.837 C 115.156 91.408,114.782 92.568,114.623 93.417 C 114.464 94.265,114.079 95.323,113.767 95.769 C 113.455 96.214,113.200 97.056,113.200 97.640 C 113.200 98.224,112.947 99.309,112.638 100.051 C 111.968 101.660,111.716 104.017,112.142 104.706 C 112.593 105.435,280.914 105.430,281.511 104.700 C 281.942 104.173,281.391 99.775,280.797 99.000 C 280.628 98.780,280.363 97.790,280.207 96.800 C 280.051 95.810,279.670 94.601,279.362 94.114 C 279.053 93.627,278.800 92.958,278.800 92.628 C 278.800 92.045,278.301 90.763,276.749 87.356 C 276.337 86.452,276.000 85.432,276.000 85.090 C 276.000 84.747,275.851 84.407,275.668 84.333 C 275.485 84.260,274.829 83.120,274.209 81.800 C 273.590 80.480,272.618 78.680,272.050 77.800 C 270.499 75.399,270.071 74.680,269.659 73.784 C 269.452 73.335,268.995 72.727,268.642 72.435 C 268.289 72.142,268.000 71.736,268.000 71.534 C 268.000 71.165,267.548 70.544,266.359 69.281 C 266.007 68.906,265.551 68.288,265.347 67.907 C 264.166 65.701,252.269 53.605,251.274 53.598 C 251.123 53.597,250.315 52.967,249.478 52.198 C 248.640 51.429,247.868 50.800,247.762 50.800 C 247.544 50.800,245.112 49.130,244.800 48.767 C 244.690 48.639,243.430 47.871,242.000 47.061 C 240.570 46.250,239.130 45.413,238.800 45.200 C 238.281 44.866,234.074 42.806,230.200 40.989 C 228.669 40.271,225.777 39.241,224.089 38.812 C 223.367 38.629,222.557 38.306,222.289 38.095 C 222.020 37.883,220.918 37.595,219.840 37.455 C 218.763 37.314,217.683 37.041,217.440 36.849 C 217.198 36.656,215.920 36.373,214.600 36.219 C 213.280 36.065,211.429 35.683,210.486 35.370 C 208.460 34.696,185.977 34.612,183.600 35.269 M109.618 109.096 C 107.351 109.370,104.318 111.793,103.853 113.700 C 103.705 114.305,103.408 114.800,103.192 114.800 C 102.686 114.800,102.664 127.068,103.169 127.381 C 103.372 127.506,103.652 128.127,103.791 128.760 C 104.119 130.255,106.319 132.236,108.486 132.991 C 111.143 133.917,281.318 133.893,284.000 132.967 C 285.842 132.331,288.400 130.231,288.400 129.355 C 288.400 129.086,288.625 128.792,288.900 128.701 C 289.267 128.578,289.431 126.741,289.516 121.767 L 289.632 115.000 288.316 113.033 C 287.592 111.952,286.640 110.872,286.200 110.633 C 285.760 110.395,285.283 110.039,285.141 109.843 C 284.999 109.646,284.009 109.342,282.941 109.167 C 281.002 108.848,112.233 108.779,109.618 109.096 M111.918 137.416 C 111.556 137.777,112.072 141.331,112.654 142.480 C 112.954 143.074,113.201 144.064,113.202 144.680 C 113.204 145.296,113.457 146.283,113.765 146.873 C 114.073 147.463,114.455 148.543,114.613 149.273 C 114.772 150.003,115.149 150.955,115.451 151.389 C 115.753 151.823,116.000 152.441,116.000 152.763 C 116.000 153.642,119.373 160.706,121.749 164.800 C 124.038 168.746,124.595 169.595,124.900 169.597 C 125.065 169.599,125.200 169.806,125.200 170.059 C 125.200 170.311,125.830 171.286,126.600 172.226 C 127.370 173.166,128.000 174.041,128.000 174.171 C 128.000 174.443,128.906 175.501,133.562 180.669 C 135.411 182.721,137.040 184.400,137.181 184.400 C 137.323 184.400,138.442 185.345,139.667 186.500 C 140.893 187.655,142.297 188.870,142.788 189.200 C 144.475 190.336,147.760 192.812,147.980 193.114 C 148.101 193.280,148.650 193.640,149.200 193.912 C 149.750 194.185,150.740 194.758,151.400 195.185 C 153.325 196.430,154.192 196.920,156.970 198.331 C 158.412 199.063,159.694 199.828,159.819 200.031 C 159.945 200.234,160.474 200.400,160.995 200.400 C 161.516 200.400,162.213 200.670,162.543 201.000 C 162.873 201.330,163.354 201.600,163.611 201.600 C 163.868 201.600,164.646 201.859,165.340 202.177 C 166.033 202.494,167.357 202.949,168.283 203.187 C 169.209 203.426,170.074 203.797,170.207 204.011 C 170.339 204.225,170.986 204.400,171.643 204.400 C 172.301 204.400,173.326 204.649,173.920 204.953 C 174.514 205.257,175.983 205.639,177.184 205.802 C 178.385 205.965,179.645 206.253,179.984 206.442 C 180.323 206.632,182.310 206.970,184.400 207.195 C 186.490 207.420,189.280 207.768,190.600 207.969 C 193.725 208.442,200.408 208.442,203.200 207.968 C 204.410 207.763,207.003 207.419,208.962 207.205 C 210.920 206.990,212.900 206.693,213.362 206.544 C 213.823 206.395,215.280 206.044,216.600 205.764 C 220.426 204.952,222.517 204.365,223.732 203.762 C 224.355 203.453,225.165 203.194,225.532 203.186 C 225.900 203.179,226.920 202.825,227.800 202.400 C 228.680 201.975,229.693 201.621,230.051 201.614 C 230.409 201.606,230.926 201.330,231.200 201.000 C 231.474 200.670,232.104 200.400,232.600 200.400 C 233.096 200.400,233.726 200.130,234.000 199.800 C 234.274 199.470,234.825 199.200,235.225 199.200 C 235.625 199.200,236.075 199.002,236.225 198.759 C 236.375 198.517,237.061 198.061,237.749 197.746 C 239.708 196.849,242.266 195.364,243.438 194.442 C 244.026 193.979,244.671 193.600,244.871 193.600 C 245.070 193.600,245.451 193.421,245.717 193.201 C 245.983 192.982,247.550 191.786,249.200 190.545 C 252.734 187.885,264.473 176.181,266.199 173.595 C 266.858 172.608,267.492 171.710,267.608 171.600 C 267.832 171.387,269.120 169.454,269.795 168.319 C 270.018 167.944,270.965 166.383,271.900 164.849 C 272.835 163.315,273.600 161.889,273.600 161.679 C 273.600 161.469,273.870 161.074,274.200 160.800 C 274.530 160.526,274.800 159.977,274.800 159.580 C 274.800 159.182,275.048 158.609,275.351 158.306 C 275.654 158.003,276.029 157.180,276.183 156.477 C 276.337 155.775,276.615 155.200,276.800 155.200 C 276.985 155.200,277.264 154.615,277.419 153.900 C 277.575 153.185,277.949 152.245,278.251 151.811 C 278.553 151.377,278.800 150.556,278.800 149.987 C 278.800 149.418,279.064 148.604,279.387 148.176 C 279.710 147.749,279.980 147.108,279.987 146.752 C 279.994 146.396,280.334 145.046,280.743 143.752 C 281.152 142.458,281.608 140.455,281.757 139.300 L 282.028 137.200 197.080 137.200 C 150.360 137.200,112.036 137.297,111.918 137.416 " stroke="none" fill="#e5242b" fill-rule="evenodd"></path><path id="path3" d="M184.500 210.399 L 183.600 210.774 183.600 297.373 C 183.600 382.581,183.612 383.979,184.374 384.386 C 185.533 385.006,207.695 384.945,208.320 384.320 C 208.873 383.767,209.029 211.779,208.477 210.910 C 208.233 210.526,206.959 210.521,202.558 210.885 C 197.322 211.318,190.113 211.029,186.400 210.236 C 185.850 210.119,184.995 210.192,184.500 210.399 M207.500 211.789 C 207.898 211.937,208.000 229.502,208.000 297.780 L 208.000 383.585 207.100 383.805 C 206.605 383.926,201.430 383.974,195.600 383.912 L 185.000 383.800 184.897 298.000 C 184.841 250.810,184.863 212.020,184.946 211.800 C 185.096 211.403,206.437 211.393,207.500 211.789 " stroke="none" fill="#9c9c9c" fill-rule="evenodd"></path><path id="path4" d="M186.800 34.082 C 181.722 34.623,173.237 36.469,169.500 37.847 C 163.935 39.899,163.576 40.051,158.400 42.563 C 151.665 45.831,149.914 46.892,144.200 51.169 C 137.257 56.365,126.200 68.126,123.736 72.936 C 123.380 73.631,122.969 74.290,122.823 74.400 C 122.080 74.960,116.800 84.916,116.800 85.757 C 116.800 86.057,116.530 86.526,116.200 86.800 C 115.870 87.074,115.600 87.564,115.600 87.889 C 115.600 88.213,115.350 89.046,115.046 89.740 C 112.959 94.483,110.253 105.186,110.961 105.894 C 111.297 106.230,280.476 106.547,281.852 106.215 C 283.001 105.937,283.261 104.673,282.571 102.718 C 282.257 101.828,281.999 100.627,281.998 100.050 C 281.996 99.472,281.752 98.533,281.454 97.963 C 281.156 97.392,280.790 96.271,280.640 95.471 C 280.381 94.090,278.597 89.190,277.410 86.600 C 270.460 71.430,262.218 60.979,249.404 51.088 C 246.856 49.121,244.555 47.600,244.128 47.600 C 243.837 47.600,243.600 47.416,243.600 47.190 C 243.600 46.965,243.195 46.600,242.700 46.379 C 242.205 46.158,240.540 45.277,239.000 44.420 C 234.860 42.118,233.127 41.278,231.900 40.980 C 231.295 40.833,230.800 40.567,230.800 40.388 C 230.800 40.210,230.248 39.942,229.573 39.794 C 228.898 39.646,227.863 39.273,227.273 38.965 C 226.683 38.657,225.831 38.404,225.380 38.402 C 224.929 38.401,224.370 38.210,224.137 37.977 C 223.627 37.467,218.795 36.179,213.200 35.062 C 206.129 33.650,194.801 33.229,186.800 34.082 M210.486 35.370 C 211.429 35.683,213.280 36.065,214.600 36.219 C 215.920 36.373,217.198 36.656,217.440 36.849 C 217.683 37.041,218.763 37.314,219.840 37.455 C 220.918 37.595,222.020 37.883,222.289 38.095 C 222.557 38.306,223.367 38.629,224.089 38.812 C 225.777 39.241,228.669 40.271,230.200 40.989 C 234.074 42.806,238.281 44.866,238.800 45.200 C 239.130 45.413,240.570 46.250,242.000 47.061 C 243.430 47.871,244.690 48.639,244.800 48.767 C 245.112 49.130,247.544 50.800,247.762 50.800 C 247.868 50.800,248.640 51.429,249.478 52.198 C 250.315 52.967,251.123 53.597,251.274 53.598 C 252.269 53.605,264.166 65.701,265.347 67.907 C 265.551 68.288,266.007 68.906,266.359 69.281 C 267.548 70.544,268.000 71.165,268.000 71.534 C 268.000 71.736,268.289 72.142,268.642 72.435 C 268.995 72.727,269.452 73.335,269.659 73.784 C 270.071 74.680,270.499 75.399,272.050 77.800 C 272.618 78.680,273.590 80.480,274.209 81.800 C 274.829 83.120,275.485 84.260,275.668 84.333 C 275.851 84.407,276.000 84.747,276.000 85.090 C 276.000 85.432,276.337 86.452,276.749 87.356 C 278.301 90.763,278.800 92.045,278.800 92.628 C 278.800 92.958,279.053 93.627,279.362 94.114 C 279.670 94.601,280.051 95.810,280.207 96.800 C 280.363 97.790,280.628 98.780,280.797 99.000 C 281.391 99.775,281.942 104.173,281.511 104.700 C 280.914 105.430,112.593 105.435,112.142 104.706 C 111.716 104.017,111.968 101.660,112.638 100.051 C 112.947 99.309,113.200 98.224,113.200 97.640 C 113.200 97.056,113.455 96.214,113.767 95.769 C 114.079 95.323,114.464 94.265,114.623 93.417 C 114.782 92.568,115.156 91.408,115.454 90.837 C 115.752 90.267,115.996 89.590,115.998 89.332 C 116.000 88.916,116.722 87.302,117.668 85.600 C 117.852 85.270,118.191 84.550,118.422 84.000 C 119.575 81.253,122.543 75.923,124.015 73.956 C 124.573 73.210,125.369 72.060,125.784 71.400 C 126.200 70.740,127.543 68.941,128.770 67.402 C 129.996 65.863,131.180 64.376,131.400 64.098 C 131.970 63.378,137.682 57.631,139.267 56.182 C 144.044 51.818,153.646 45.351,157.600 43.835 C 157.930 43.709,158.515 43.424,158.900 43.203 C 159.285 42.981,159.915 42.619,160.300 42.397 C 160.685 42.176,161.270 41.892,161.600 41.765 C 161.930 41.639,162.940 41.190,163.844 40.768 C 164.748 40.345,165.749 40.000,166.067 40.000 C 166.386 40.000,166.996 39.736,167.424 39.413 C 167.851 39.090,168.745 38.820,169.411 38.813 C 170.077 38.806,170.977 38.557,171.411 38.259 C 171.845 37.962,172.973 37.598,173.917 37.452 C 174.862 37.305,175.942 37.017,176.317 36.812 C 176.693 36.607,178.170 36.263,179.600 36.047 C 181.030 35.832,182.830 35.482,183.600 35.269 C 185.977 34.612,208.460 34.696,210.486 35.370 M108.933 108.329 C 106.731 109.050,104.181 110.883,103.549 112.200 C 103.338 112.640,102.906 113.450,102.589 114.000 C 102.155 114.751,102.010 116.531,102.006 121.156 C 101.998 129.228,102.687 130.823,107.277 133.362 L 109.154 134.400 196.528 134.400 C 273.706 134.400,283.960 134.330,284.400 133.800 C 284.674 133.470,285.215 133.200,285.602 133.200 C 286.324 133.200,288.712 130.812,289.667 129.135 C 290.714 127.298,290.399 114.521,289.262 112.691 C 288.053 110.747,286.031 109.220,283.471 108.318 C 280.404 107.238,112.235 107.249,108.933 108.329 M282.941 109.167 C 284.009 109.342,284.999 109.646,285.141 109.843 C 285.283 110.039,285.760 110.395,286.200 110.633 C 286.640 110.872,287.592 111.952,288.316 113.033 L 289.632 115.000 289.516 121.767 C 289.431 126.741,289.267 128.578,288.900 128.701 C 288.625 128.792,288.400 129.086,288.400 129.355 C 288.400 130.231,285.842 132.331,284.000 132.967 C 281.318 133.893,111.143 133.917,108.486 132.991 C 106.319 132.236,104.119 130.255,103.791 128.760 C 103.652 128.127,103.372 127.506,103.169 127.381 C 102.664 127.068,102.686 114.800,103.192 114.800 C 103.408 114.800,103.705 114.305,103.853 113.700 C 104.318 111.793,107.351 109.370,109.618 109.096 C 112.233 108.779,281.002 108.848,282.941 109.167 M110.990 136.816 C 110.681 137.316,111.507 142.702,112.048 143.720 C 112.259 144.116,112.591 145.196,112.785 146.120 C 113.170 147.949,114.100 150.673,115.018 152.660 C 115.338 153.354,115.600 154.187,115.600 154.511 C 115.600 154.836,115.870 155.326,116.200 155.600 C 116.530 155.874,116.800 156.347,116.800 156.651 C 116.800 157.618,122.378 167.993,122.900 167.997 C 123.065 167.999,123.200 168.233,123.200 168.519 C 123.200 168.804,123.470 169.389,123.801 169.819 C 124.131 170.248,125.918 172.580,127.770 175.000 C 132.616 181.329,139.546 188.175,144.546 191.572 C 151.260 196.134,155.540 198.791,157.200 199.428 C 157.530 199.554,158.070 199.826,158.400 200.031 C 158.730 200.237,159.270 200.516,159.600 200.651 C 159.930 200.786,160.932 201.235,161.826 201.648 C 162.721 202.062,163.651 202.400,163.894 202.400 C 164.137 202.400,164.845 202.656,165.468 202.968 C 168.615 204.547,176.805 206.883,181.800 207.626 C 183.120 207.823,185.010 208.159,186.000 208.374 C 188.424 208.901,205.341 208.888,207.600 208.358 C 208.590 208.126,210.840 207.698,212.600 207.407 C 215.895 206.862,219.106 206.107,222.600 205.055 C 226.797 203.792,227.741 203.415,235.400 199.944 C 245.083 195.556,258.210 185.090,264.651 176.623 C 265.478 175.535,266.402 174.365,266.704 174.023 C 267.848 172.727,271.200 168.022,271.200 167.712 C 271.200 167.535,271.804 166.492,272.542 165.395 C 273.280 164.298,274.012 162.995,274.169 162.500 C 274.326 162.005,274.622 161.600,274.827 161.600 C 275.032 161.600,275.200 161.410,275.200 161.178 C 275.200 160.797,275.565 159.897,277.424 155.700 C 277.741 154.985,278.258 153.815,278.573 153.100 C 278.888 152.385,279.538 150.540,280.016 149.000 C 280.495 147.460,281.137 145.521,281.443 144.692 C 281.749 143.862,282.000 142.760,282.000 142.242 C 282.000 141.724,282.273 140.528,282.606 139.584 C 282.939 138.639,283.107 137.537,282.979 137.133 C 282.704 136.267,111.525 135.951,110.990 136.816 M281.757 139.300 C 281.608 140.455,281.152 142.458,280.743 143.752 C 280.334 145.046,279.994 146.396,279.987 146.752 C 279.980 147.108,279.710 147.749,279.387 148.176 C 279.064 148.604,278.800 149.418,278.800 149.987 C 278.800 150.556,278.553 151.377,278.251 151.811 C 277.949 152.245,277.575 153.185,277.419 153.900 C 277.264 154.615,276.985 155.200,276.800 155.200 C 276.615 155.200,276.337 155.775,276.183 156.477 C 276.029 157.180,275.654 158.003,275.351 158.306 C 275.048 158.609,274.800 159.182,274.800 159.580 C 274.800 159.977,274.530 160.526,274.200 160.800 C 273.870 161.074,273.600 161.469,273.600 161.679 C 273.600 161.889,272.835 163.315,271.900 164.849 C 270.965 166.383,270.018 167.944,269.795 168.319 C 269.120 169.454,267.832 171.387,267.608 171.600 C 267.492 171.710,266.858 172.608,266.199 173.595 C 264.473 176.181,252.734 187.885,249.200 190.545 C 247.550 191.786,245.983 192.982,245.717 193.201 C 245.451 193.421,245.070 193.600,244.871 193.600 C 244.671 193.600,244.026 193.979,243.438 194.442 C 242.266 195.364,239.708 196.849,237.749 197.746 C 237.061 198.061,236.375 198.517,236.225 198.759 C 236.075 199.002,235.625 199.200,235.225 199.200 C 234.825 199.200,234.274 199.470,234.000 199.800 C 233.726 200.130,233.096 200.400,232.600 200.400 C 232.104 200.400,231.474 200.670,231.200 201.000 C 230.926 201.330,230.409 201.606,230.051 201.614 C 229.693 201.621,228.680 201.975,227.800 202.400 C 226.920 202.825,225.900 203.179,225.532 203.186 C 225.165 203.194,224.355 203.453,223.732 203.762 C 222.517 204.365,220.426 204.952,216.600 205.764 C 215.280 206.044,213.823 206.395,213.362 206.544 C 212.900 206.693,210.920 206.990,208.962 207.205 C 207.003 207.419,204.410 207.763,203.200 207.968 C 200.408 208.442,193.725 208.442,190.600 207.969 C 189.280 207.768,186.490 207.420,184.400 207.195 C 182.310 206.970,180.323 206.632,179.984 206.442 C 179.645 206.253,178.385 205.965,177.184 205.802 C 175.983 205.639,174.514 205.257,173.920 204.953 C 173.326 204.649,172.301 204.400,171.643 204.400 C 170.986 204.400,170.339 204.225,170.207 204.011 C 170.074 203.797,169.209 203.426,168.283 203.187 C 167.357 202.949,166.033 202.494,165.340 202.177 C 164.646 201.859,163.868 201.600,163.611 201.600 C 163.354 201.600,162.873 201.330,162.543 201.000 C 162.213 200.670,161.516 200.400,160.995 200.400 C 160.474 200.400,159.945 200.234,159.819 200.031 C 159.694 199.828,158.412 199.063,156.970 198.331 C 154.192 196.920,153.325 196.430,151.400 195.185 C 150.740 194.758,149.750 194.185,149.200 193.912 C 148.650 193.640,148.101 193.280,147.980 193.114 C 147.760 192.812,144.475 190.336,142.788 189.200 C 142.297 188.870,140.893 187.655,139.667 186.500 C 138.442 185.345,137.323 184.400,137.181 184.400 C 137.040 184.400,135.411 182.721,133.562 180.669 C 128.906 175.501,128.000 174.443,128.000 174.171 C 128.000 174.041,127.370 173.166,126.600 172.226 C 125.830 171.286,125.200 170.311,125.200 170.059 C 125.200 169.806,125.065 169.599,124.900 169.597 C 124.024 169.590,116.000 154.412,116.000 152.763 C 116.000 152.441,115.753 151.823,115.451 151.389 C 115.149 150.955,114.772 150.003,114.613 149.273 C 114.455 148.543,114.073 147.463,113.765 146.873 C 113.457 146.283,113.204 145.296,113.202 144.680 C 113.201 144.064,112.954 143.074,112.654 142.480 C 112.072 141.331,111.556 137.777,111.918 137.416 C 112.036 137.297,150.360 137.200,197.080 137.200 L 282.028 137.200 281.757 139.300 " stroke="none" fill="#952429" fill-rule="evenodd"></path></g></svg>