<?xml version="1.0" encoding="UTF-8" standalone="no"?>
<!DOCTYPE svg PUBLIC "-//W3C//DTD SVG 1.1//EN" "http://www.w3.org/Graphics/SVG/1.1/DTD/svg11.dtd">
<svg xmlns="http://www.w3.org/2000/svg" xmlns:xlink="http://www.w3.org/1999/xlink" version="1.1" width="275.92604pt" height="163.60901pt" viewBox="0 0 275.92604 163.60901">
<g enable-background="new">
<path transform="matrix(1,0,0,-1,-176.213,486.153)" d="M 176.255 322.559 L 452.048 322.559 L 452.048 486.159 L 176.255 486.159 Z " fill="#a0cecb"/>
<text fill="#ffffff" xml:space="preserve" transform="matrix(1 0 -0 1 -176.213 486.153)" font-size="22.08" font-family="HelveticaNeue" font-weight="bold"><tspan y="-411.9927" x="265.9065 279.39738 285.09403 298.18748 309.647 315.78526 326.82527 339.49919 345.19584 357.86976">Tiny Talks</tspan><tspan y="-385.4967" x="218.50074 233.22809 246.71897 259.39289 272.0668 284.74073 292.51289 298.65113 311.74458 317.44123 330.11515 335.8118 349.30268 355.44093 372.19966 385.2931 390.98976 404.48063">Pocket Field Guide</tspan></text>
<clipPath id="cp0">
<path transform="matrix(1,0,0,-1,-176.213,486.153)" d="M 0 0 L 630 0 L 630 810 L 0 810 Z "/>
</clipPath>
<g clip-path="url(#cp0)">
<path transform="matrix(1,0,0,-1,64.67331,42.4411)" d="M 0 0 C 3.181 0 5.76 2.579 5.76 5.76 C 5.76 8.941 3.181 11.52 0 11.52 C -3.181 11.52 -5.76 8.941 -5.76 5.76 C -5.76 2.579 -3.181 0 0 0 " fill="#ffd666"/>
<path transform="matrix(1,0,0,-1,86.2133,42.4411)" d="M 0 0 C 3.181 0 5.76 2.579 5.76 5.76 C 5.76 8.941 3.181 11.52 0 11.52 C -3.181 11.52 -5.76 8.941 -5.76 5.76 C -5.76 2.579 -3.181 0 0 0 " fill="#841678"/>
<path transform="matrix(1,0,0,-1,107.7534,42.604524)" d="M 0 0 C 3.181 0 5.76 2.579 5.76 5.76 C 5.76 8.941 3.181 11.52 0 11.52 C -3.181 11.52 -5.76 8.941 -5.76 5.76 C -5.76 2.579 -3.181 0 0 0 " fill="#d4562a"/>
<path transform="matrix(1,0,0,-1,129.7889,42.4411)" d="M 0 0 C 3.181 0 5.76 2.579 5.76 5.76 C 5.76 8.941 3.181 11.52 0 11.52 C -3.181 11.52 -5.76 8.941 -5.76 5.76 C -5.76 2.579 -3.181 0 0 0 " fill="#24408f"/>
<path transform="matrix(1,0,0,-1,151.82451,42.4411)" d="M 0 0 C 3.181 0 5.76 2.579 5.76 5.76 C 5.76 8.941 3.181 11.52 0 11.52 C -3.181 11.52 -5.76 8.941 -5.76 5.76 C -5.76 2.579 -3.181 0 0 0 " fill="#306e30"/>
<path transform="matrix(1,0,0,-1,173.86009,42.604524)" d="M 0 0 C 3.181 0 5.76 2.579 5.76 5.76 C 5.76 8.941 3.181 11.52 0 11.52 C -3.181 11.52 -5.76 8.941 -5.76 5.76 C -5.76 2.579 -3.181 0 0 0 " fill="#b31117"/>
<path transform="matrix(1,0,0,-1,195.89562,42.4411)" d="M 0 0 C 3.181 0 5.76 2.579 5.76 5.76 C 5.76 8.941 3.181 11.52 0 11.52 C -3.181 11.52 -5.76 8.941 -5.76 5.76 C -5.76 2.579 -3.181 0 0 0 " fill="#008bbf"/>
<path transform="matrix(1,0,0,-1,217.9312,42.604524)" d="M 0 0 C 3.181 0 5.76 2.579 5.76 5.76 C 5.76 8.941 3.181 11.52 0 11.52 C -3.181 11.52 -5.76 8.941 -5.76 5.76 C -5.76 2.579 -3.181 0 0 0 " fill="#9a016e"/>
<path transform="matrix(1,0,0,-1,216.46721,138.47232)" d="M 0 0 C -3.181 0 -5.76 2.579 -5.76 5.76 C -5.76 8.941 -3.181 11.52 0 11.52 C 3.181 11.52 5.76 8.941 5.76 5.76 C 5.76 2.579 3.181 0 0 0 " fill="#ffd666"/>
<path transform="matrix(1,0,0,-1,194.9272,138.47232)" d="M 0 0 C -3.181 0 -5.76 2.579 -5.76 5.76 C -5.76 8.941 -3.181 11.52 0 11.52 C 3.181 11.52 5.76 8.941 5.76 5.76 C 5.76 2.579 3.181 0 0 0 " fill="#841678"/>
<path transform="matrix(1,0,0,-1,173.38719,138.6358)" d="M 0 0 C -3.181 0 -5.76 2.579 -5.76 5.76 C -5.76 8.941 -3.181 11.52 0 11.52 C 3.181 11.52 5.76 8.941 5.76 5.76 C 5.76 2.579 3.181 0 0 0 " fill="#d4562a"/>
<path transform="matrix(1,0,0,-1,151.35161,138.47232)" d="M 0 0 C -3.181 0 -5.76 2.579 -5.76 5.76 C -5.76 8.941 -3.181 11.52 0 11.52 C 3.181 11.52 5.76 8.941 5.76 5.76 C 5.76 2.579 3.181 0 0 0 " fill="#24408f"/>
<path transform="matrix(1,0,0,-1,129.31612,138.47232)" d="M 0 0 C -3.181 0 -5.76 2.579 -5.76 5.76 C -5.76 8.941 -3.181 11.52 0 11.52 C 3.181 11.52 5.76 8.941 5.76 5.76 C 5.76 2.579 3.181 0 0 0 " fill="#306e30"/>
<path transform="matrix(1,0,0,-1,107.2805,138.6358)" d="M 0 0 C -3.181 0 -5.76 2.579 -5.76 5.76 C -5.76 8.941 -3.181 11.52 0 11.52 C 3.181 11.52 5.76 8.941 5.76 5.76 C 5.76 2.579 3.181 0 0 0 " fill="#b31117"/>
<path transform="matrix(1,0,0,-1,85.24489,138.47232)" d="M 0 0 C -3.181 0 -5.76 2.579 -5.76 5.76 C -5.76 8.941 -3.181 11.52 0 11.52 C 3.181 11.52 5.76 8.941 5.76 5.76 C 5.76 2.579 3.181 0 0 0 " fill="#008bbf"/>
<path transform="matrix(1,0,0,-1,63.209398,138.6358)" d="M 0 0 C -3.181 0 -5.76 2.579 -5.76 5.76 C -5.76 8.941 -3.181 11.52 0 11.52 C 3.181 11.52 5.76 8.941 5.76 5.76 C 5.76 2.579 3.181 0 0 0 " fill="#9a016e"/>
</g>
</g>
</svg>
