<?xml version="1.0" encoding="UTF-8" standalone="no"?>
<!DOCTYPE svg PUBLIC "-//W3C//DTD SVG 1.1//EN" "http://www.w3.org/Graphics/SVG/1.1/DTD/svg11.dtd">
<svg xmlns="http://www.w3.org/2000/svg" xmlns:xlink="http://www.w3.org/1999/xlink" version="1.1" width="586.743pt" height="368.888pt" viewBox="0 0 586.743 368.888">
<g enable-background="new">
<path transform="matrix(1,0,0,-1,-111.76,503.39)" d="M 111.955 134.858 L 698.551 134.858 L 698.551 209.162 L 111.955 209.162 Z " fill="#a0cecb"/>
<text fill="#005695" xml:space="preserve" transform="matrix(1 0 -0 1 -111.76 503.39)" font-size="11" font-family="Helvetica"><tspan y="-381.2834" x="132.3558 142.7398 148.8558 154.9718 158.0298 161.0878 169.0298 175.1458 181.2618 183.7038 189.8198 192.87779 195.93579 202.05179 208.16779 211.22579 214.28379 220.39978 223.45778 229.57378 233.23677 239.35277 242.41077 244.85277 250.96877 257.08479 262.58479 265.6428 268.08479 270.52677 276.02677 282.14277 285.20079 287.64277 290.70079 293.7588 301.70079 307.81678 310.8748 316.3748 322.49079 328.60679 331.04878 337.16477 340.22279 345.72279 351.83879 354.28077 357.33879 360.3968 363.4548 369.5708 375.6868 379.3498 382.4078 388.5238 394.6398 400.1398 406.2558 409.3138 412.37184 416.03483 422.15083 431.3138 434.37184 439.87184 442.92985 449.04585 455.16184 461.27784 466.77784 469.83586 475.95185 482.06785 488.18385 491.24186 496.74186 502.24186 505.90486 512.0209 518.1369 524.2529 529.7529 532.8109 535.8689 541.9849 545.0429 551.15896 557.27499 562.77499 568.891 571.949 578.065 581.123 587.239 593.35507 597.01809 600.07608 606.1921 609.8551 615.9711 622.08718 628.2032 634.3192 637.3772 643.4932 646.5512 649.6092 655.7252 661.84127 664.28329 670.3993 676.5153">What would the future look like if we could shift our gaze from stages and screens to each other around a table? </tspan></text>
<text fill="#005695" xml:space="preserve" transform="matrix(1 0 -0 1 -111.76 503.39)" font-size="11" font-family="Helvetica"><tspan y="-368.08338" x="129.09981 139.48381 145.59981 151.7158 157.8318 160.8898 168.8318 174.9478 178.0058 184.1218 187.78479 193.90079 200.01679 205.51679 208.57479 211.63278 215.29578 221.41178 227.52777 230.58577 233.64377 237.30677 243.42276 252.58576 255.64376 258.70176 264.81776 270.93376 273.99177 276.43376 281.93376 288.04975 290.49174 296.60774 299.66575 302.10774 308.22373 314.33973 317.39775 323.51374 326.57176 329.62977 335.12977 337.57176 341.23475 344.29277 350.40876 356.52476 358.96675 362.02476 367.52476 373.64076 379.75675 385.25675 391.37275 396.87275 399.93077 406.04676 412.16276 418.27876 421.33677 427.45277 431.11576 437.23176 443.34776 448.84776 451.90577 458.02177 461.68476 467.80076 473.91676 480.03276 483.09077 486.14878 492.26478 498.38078 504.49678 507.55479 513.6708 519.7868 522.8778 525.9358 528.9938 536.9358 543.0518 546.1098 551.6098 557.7258 563.84188 566.89987 570.56289 576.6789 582.7949 585.23696 590.73696 596.23696 602.35299 607.85299 613.969 617.632 620.69 628.632 634.74807 640.8641 643.92208 646.98007 649.42208 652.48007 654.73837 660.23837 663.2963 665.73837 668.18038 673.68038 679.7964">When we break free from the isolation of virtual spaces and break bread together, we can rediscover what it&#x2019;s like </tspan><tspan y="-354.88337" x="141.6178 144.6758 150.7918 153.8498 159.96579 166.08179 169.13979 175.25579 178.31378 184.42978 190.54578 194.20877 197.26677 200.32477 206.44077 209.49877 212.55677 218.05677 224.17276 233.33576 239.45175 242.50975 248.62575 251.06775 257.18376 263.29975 266.35777 272.47377 274.91575 281.03175 287.14775 293.26374 296.92674 299.98475 303.04277 309.15876 315.27476 321.39076 324.44877 330.56477 336.68077 340.34376 345.84376 351.95976 354.40174 359.90174 366.01774 371.51774 374.57575 377.45668 384.17768 390.29368 396.40968 399.46769 405.58369 411.69969 415.36268 421.47868 427.59468 433.71067 437.37367 440.43168 446.54768 452.66368 460.60566 466.10566 469.16368 474.66368 480.16368 485.66368 488.10566 494.22166 499.72166 502.77967 505.22166 511.33766 517.4537 523.5697 526.6277 532.7437 538.2437 541.3017 544.3597 550.4757 553.5337 559.6497 565.76577 568.20779 570.6498 576.7658 582.2658 588.38186 591.4398 594.4978 600.61386 606.72988 609.78787 612.8458 620.78787 626.9039 629.3459 633.0089 639.12496 642.1829 651.34597 657.462 661.125 667.241">to be a part of something bigger than ourselves. The 24-hour news cycles lead us to believe that we&#x2019;re more </tspan></text>
<text fill="#005695" xml:space="preserve" transform="matrix(1 0 -0 1 -111.76 503.39)" font-size="11" font-family="Helvetica"><tspan y="-341.68336" x="236.7018 242.8178 245.2598 250.7598 253.2018 259.3178 265.4338 271.5498 274.60783 277.66584 283.78184 289.89784 296.01383 299.07185 305.18785 311.30384 316.80384 319.86186 322.91987 325.36186 334.52485 340.64085 343.69886 346.14085 352.25685 355.31486 361.43086 363.87284 369.37284 372.43086 378.54685 382.20985 386.91566 389.97367 393.03169 400.36869 406.48469 409.5427 412.6007 420.5427 426.6587 429.7167 435.2167 441.3327 447.4487 450.5067 456.6227 459.0647 464.5647 470.6807 476.7967 479.23869 482.2967 485.3547 491.4707 493.9127 499.4127 502.4707 511.6337 517.13369 520.19168 526.3077 529.36569 532.42367 538.5397 544.6557 550.7717 553.8297 559.94577 566.06179 569.1297 572.1877">divided than any time in history. But we can dispel this myth together. </tspan><tspan y="-315.28337" x="142.7508 150.6928 156.80879 159.2508 165.36679 168.42479 174.54079 180.04079 183.09879 189.21479 194.71479 200.83078 206.94678 210.60977 213.66777 216.10977 222.22577 225.28377 231.39977 234.45777 238.12076 244.23676 250.35276 256.46876 264.41075 270.52674 276.64274 279.70075 285.20075 291.31675 300.47975 309.64274 312.08473 315.14274 324.30574 330.42173 336.53773 339.59574 342.65376 345.71177 351.82777 354.88578 360.38578 366.50178 372.61778 376.28077 382.39677 385.45478 391.57078 397.68678 401.34977 406.84977 412.96577 419.08177 424.58177 427.63978 430.08177 435.58177 441.69776 447.19776 450.25578 456.37178 462.48777 468.60377 471.66178 474.10377 480.21977 486.33576 489.99876 496.11476 499.17277 502.23078 508.34678 514.46279 517.52078 523.6368 527.2998 530.3578 533.4158 539.5318 542.5898 545.64779 551.7638 557.2638 560.3218 562.7638 568.2638 574.3798 576.82186 582.32186 585.3798 587.82186 590.26388 595.76388 598.82186 604.93789 611.0539 613.4959 619.61196 625.72799 628.78598 631.84396 637.95999 641.623 647.739 653.85507 659.97109 666.0871">Help us usher in a renewed commitment to share perspectives and learn the art of actively listening through </tspan></text>
<text fill="#005695" xml:space="preserve" transform="matrix(1 0 -0 1 -111.76 503.39)" font-size="11" font-family="Helvetica"><tspan y="-302.08335" x="135.19379 141.30979 147.42578 153.54178 159.65778 163.32077 169.43677 171.87877 177.37877 183.49477 186.55277 192.05277 198.16876 204.28476 209.78476 215.90076 219.56375 225.06375 231.17975 234.23775 236.67975 242.79575 248.91175 254.41175 257.46977 260.52778 267.86479 273.36479 276.4228 282.5388 288.0388 294.1548 300.27079 306.38679 312.50279 314.94477 321.06077 327.17677 330.23478 335.73478 338.17677 341.83976 347.33976 349.78175 355.89775 361.39775 364.45576 370.57176 373.62977 376.68778 382.80378 391.96678 398.08277 404.19877 407.25679 413.37278 418.87278 421.9308 428.04679 434.16279 440.27879 443.3368 449.4528 453.11579 459.23179 468.39479 474.51078 477.5688 480.01078 486.12678 492.24278 495.30079 501.41679 507.53279 513.6488 519.76486 525.26486 528.3228 531.3808 536.8808 542.9968 549.11288 554.61288 560.7289 564.3919 569.8919 576.00796 579.0659 581.50796 587.62399 593.74 599.24 602.298 605.35598 607.798 613.914 616.972 619.27078 624.77078 627.82876 633.32876 639.44479 643.1078 648.6078 652.2708 658.38687 664.50289 667.56088 673.6769">deep-dive conversations. By expanding circles of empathy and promoting honest conversations, let&#x2019;s co-create </tspan></text>
<text fill="#005695" xml:space="preserve" transform="matrix(1 0 -0 1 -111.76 503.39)" font-size="11" font-family="Helvetica"><tspan y="-288.88334" x="204.47174 210.58774 213.64574 216.70374 222.81974 228.93573 235.05173 241.16773 247.28372 250.34172 252.78372 258.89973 265.01573 268.07374 271.13175 277.24775 280.91075 283.96876 290.08476 296.20075 302.31675 308.43275 310.87474 316.99073 323.10673 326.16474 332.28074 334.72273 340.8387 343.2807 349.3967 355.5127 361.6287 367.7447 370.8027 373.86073 379.9767 383.03474 388.53474 394.65074 400.15074 403.20875 409.32475 411.76673 417.88273 420.94075 427.05674 432.55674 435.61476 438.05674 444.17274 450.28874 456.40473 459.46275 465.57875 468.63676 471.69477 477.81077 481.47377 484.53178 492.47377 498.58976 501.64778 505.31077 511.42677 514.48477 520.60079 524.2638 530.3798 533.4378 536.4958 542.6118 545.6698 551.7858 557.90188 561.5649 564.62289 570.12289 576.2389 579.9019 586.01797 592.134 595.797 601.297 604.355">a foundation for ongoing dialogue to sustain us long after we return to our corners. </tspan></text>
<text fill="#005695" xml:space="preserve" transform="matrix(1 0 -0 1 -111.76 503.39)" font-size="11" font-family="Helvetica"><tspan y="-262.48335" x="133.15876 140.49576 146.61176 150.27475 156.39075 162.50675 168.62274 177.78574 180.84374 186.95973 189.40174 195.51773 201.01773 207.13373 209.57573 215.69173 218.74973 224.86573 230.98172 236.48172 242.59772 245.65572 251.15572 257.27174 259.7137 265.8297 268.88774 271.94575 275.60874 278.66676 281.72477 287.84077 293.95677 300.07276 302.51475 305.57276 308.63078 311.07276 313.51475 319.01475 325.13075 328.18876 331.24678 337.36277 343.47877 346.53678 349.5948 358.75779 364.87379 370.98979 374.0478 377.1058 380.16383 383.22184 392.38484 398.50083 404.00083 407.05885 410.11686 416.23286 422.34886 425.40687 428.46488 431.5229 437.6389 440.6969 446.1969 452.3129 458.4289 466.37089 469.4289 475.5449 477.98689 487.14988 490.2079 496.32389 502.43989 505.4979 508.5559 514.67196 517.7518 520.80978 524.4728 527.53079 537.71566 543.83169 546.88967 553.0057 559.1217 562.7847 568.90078 575.0168 578.07479 586.0168 588.4588 591.5168 597.6328 600.6908 603.7488 609.8648 612.3068 617.8068 620.8648 626.98086 633.09689 635.5389 637.9809 644.0969 649.5969 655.71298 661.829 667.945 672.6541">Abraham Lincoln once said, &#x201c;I don&#x2019;t like that man. I must get to know him better.&#x201d; We agree with this philosophy.</tspan><tspan y="-249.28334" x="184.71579 190.83179 196.94779 200.00579 202.25748 207.75748 210.81548 216.93148 219.37348 224.87348 234.03647 240.15247 246.26847 249.32646 251.76847 257.88447 260.94248 264.0005 270.1165 276.23249 279.2905 284.7905 287.23249 289.67448 295.79048 301.29048 304.34849 307.4065 313.5225 319.6385 322.08049 324.52247 330.63847 333.69648 342.85948 348.97547 352.63847 358.75447 361.81248 367.31248 373.42848 379.54447 385.66047 391.77647 395.43946 398.49748 400.93946 406.43946 412.55546 415.61347 421.11347 423.55546 425.99745 428.43943 434.55543 440.67143 446.7874 452.2874 455.34544 461.46144 467.57743 473.69343 476.75144 482.25144 485.91444 492.03044 498.14643 501.20445 507.32044 510.37846 516.49447 522.6105 531.7735 537.8895 544.00558 547.06356 552.56356 558.67959 564.7956 570.9116 577.02767 582.52767 585.58566 591.70169 597.8177 603.9337 610.04977 615.54977 621.04977">Let&#x2019;s dismantle the silos, build more supportive villages and create human connectedness.</tspan></text>
<text fill="#005695" xml:space="preserve" transform="matrix(1 0 -0 1 -111.76 503.39)" font-size="11" font-family="Helvetica"><tspan y="-236.08335" x="211.53379 218.87079 224.37079 227.42879 232.92879 239.04479 245.16078 248.82378 254.93978 261.0558 267.17179 273.28779 279.40379 284.90379 287.34577 292.84577 295.90379 298.34577 304.46177 309.96177 316.07777 319.74076 322.79878 325.24076 331.35676 337.47276 340.53077 346.64677 352.76277 356.42576 359.48377 368.64677 374.76277 380.26277 383.32078 386.37879 392.49479 398.61079 401.6688 407.7848 413.9008 420.01679 423.0748 425.51679 431.01679 434.0748 439.5748 445.6908 448.13279 453.63279 459.74879 465.24879 468.3068 470.74879 476.86479 479.9228 486.0388 489.0968 492.7598 498.8758 504.9918 507.43379 510.4918 512.9338 515.3758 518.4338 524.5498 527.6078 533.7238 539.83987 545.9559 548.3979 550.8399 556.3399 559.3979 564.8979 571.0139 577.12997 582.62997 588.746 594.246 597.30398">By courageously inserting our most authentic selves into real life public spaces, </tspan><tspan y="-222.88335" x="186.75078 194.69278 200.80878 203.86678 209.98278 213.64577 219.76177 225.26177 231.37776 234.43576 237.49376 243.60976 249.72576 252.78376 255.84175 263.78376 269.89976 272.95777 279.07377 282.73677 288.85276 291.91078 301.07377 307.18977 310.85276 316.96876 320.02677 326.14277 328.58476 331.02674 336.52674 342.64274 345.70075 348.75877 354.87477 360.99076 367.10676 370.16477 376.28077 378.72276 381.60368 384.66169 390.77769 394.44068 400.55668 406.67268 409.73069 412.7887 415.8467 418.2887 424.4047 430.5207 436.6367 439.07868 445.19468 451.31068 453.75267 459.25267 465.36866 467.81065 470.25263 474.95845 478.01646 481.07447 486.57447 492.69047 495.13246 498.79545 501.23744 504.29545 510.41145 516.52749 518.9695 521.4115 526.9115 529.9695 536.0855 542.20156 548.31759 551.37557 557.4916 563.6076 569.72366 575.83969 579.5027 585.6187 588.6767 591.1187 597.23477 603.35079 609.4668 611.9088 614.3508 619.0654 622.1234">we prove that we are more alike than different, ideologically, spiritually and generationally. </tspan></text>
<path transform="matrix(1,0,0,-1,-111.76,503.39)" d="M 113.551 422.948 L 696.955 422.948 L 696.955 503.305 L 113.551 503.305 Z " fill="#a0cecb"/>
<text fill="#005695" xml:space="preserve" transform="matrix(1 0 -0 1 -111.76 503.39)" font-size="24" font-family="HelveticaNeue" font-weight="bold"><tspan y="-456.0836" x="201.6083 224.26432 238.4963 252.27231 260.7203 267.3923 273.5843 286.4723 293.1443 301.5923 315.82429 322.01628 334.90428 341.57627 352.68827 365.16828 371.36027 377.55226 383.74424 397.52024 412.18424 425.96025 437.07225 443.74424 452.19224 466.42424 480.20024 492.65623 499.32823 512.2162 526.8802 540.6562 554.4322 568.2082 574.8802 589.5442 597.5362">What is this &#x201c;village&#x201d; they speak of?</tspan></text>
<clipPath id="cp0">
<path transform="matrix(1,0,0,-1,-111.76,503.39)" d="M 0 0 L 810 0 L 810 630 L 0 630 Z "/>
</clipPath>
<g clip-path="url(#cp0)">
<path transform="matrix(1,0,0,-1,198.5051,337.23753)" d="M 0 0 C 3.976 0 7.2 3.224 7.2 7.2 C 7.2 11.176 3.976 14.4 0 14.4 C -3.976 14.4 -7.2 11.176 -7.2 7.2 C -7.2 3.224 -3.976 0 0 0 " fill="#ffd666"/>
<path transform="matrix(1,0,0,-1,225.43009,337.23753)" d="M 0 0 C 3.976 0 7.2 3.224 7.2 7.2 C 7.2 11.176 3.976 14.4 0 14.4 C -3.976 14.4 -7.2 11.176 -7.2 7.2 C -7.2 3.224 -3.976 0 0 0 " fill="#841678"/>
<path transform="matrix(1,0,0,-1,252.3551,337.4419)" d="M 0 0 C 3.976 0 7.2 3.224 7.2 7.2 C 7.2 11.176 3.976 14.4 0 14.4 C -3.976 14.4 -7.2 11.176 -7.2 7.2 C -7.2 3.224 -3.976 0 0 0 " fill="#d4562a"/>
<path transform="matrix(1,0,0,-1,279.8996,337.23753)" d="M 0 0 C 3.976 0 7.2 3.224 7.2 7.2 C 7.2 11.176 3.976 14.4 0 14.4 C -3.976 14.4 -7.2 11.176 -7.2 7.2 C -7.2 3.224 -3.976 0 0 0 " fill="#24408f"/>
<path transform="matrix(1,0,0,-1,307.444,337.23753)" d="M 0 0 C 3.976 0 7.2 3.224 7.2 7.2 C 7.2 11.176 3.976 14.4 0 14.4 C -3.976 14.4 -7.2 11.176 -7.2 7.2 C -7.2 3.224 -3.976 0 0 0 " fill="#306e30"/>
<path transform="matrix(1,0,0,-1,334.9885,337.4419)" d="M 0 0 C 3.976 0 7.2 3.224 7.2 7.2 C 7.2 11.176 3.976 14.4 0 14.4 C -3.976 14.4 -7.2 11.176 -7.2 7.2 C -7.2 3.224 -3.976 0 0 0 " fill="#b31117"/>
<path transform="matrix(1,0,0,-1,362.533,337.23753)" d="M 0 0 C 3.976 0 7.2 3.224 7.2 7.2 C 7.2 11.176 3.976 14.4 0 14.4 C -3.976 14.4 -7.2 11.176 -7.2 7.2 C -7.2 3.224 -3.976 0 0 0 " fill="#008bbf"/>
<path transform="matrix(1,0,0,-1,390.0774,337.4419)" d="M 0 0 C 3.976 0 7.2 3.224 7.2 7.2 C 7.2 11.176 3.976 14.4 0 14.4 C -3.976 14.4 -7.2 11.176 -7.2 7.2 C -7.2 3.224 -3.976 0 0 0 " fill="#9a016e"/>
</g>
</g>
</svg>
