<?xml version="1.0" encoding="UTF-8" standalone="no"?>
<!DOCTYPE svg PUBLIC "-//W3C//DTD SVG 1.1//EN" "http://www.w3.org/Graphics/SVG/1.1/DTD/svg11.dtd">
<svg xmlns="http://www.w3.org/2000/svg" xmlns:xlink="http://www.w3.org/1999/xlink" version="1.1" width="303.42503pt" height="363.72499pt" viewBox="0 0 303.42503 363.72499">
<g enable-background="new">
<text fill="#a0cecb" xml:space="preserve" transform="matrix(1 0 -0 1 -160.637 605.948)" font-size="15" font-family="Helvetica" font-weight="bold"><tspan y="-582.324" x="176.4213 185.58629 193.92629 198.92128 202.53928 210.87928 215.04927 220.04427 228.38426 236.72426 245.06426 249.23426 257.57426 261.74427 270.08427 278.42427 286.76426 291.75926 295.92927 300.09928 310.92927 320.09428 325.08927 329.25929 337.59928 341.7693 350.10929 354.2793 363.4443 371.7843">Let&#x2019;s take a seat. Not a side.</tspan><tspan y="-546.324" x="176.4213 185.58629 193.92629 198.92128 202.53928 210.87928 215.04927 223.38927 227.55927 231.72927 235.89926 244.23926 253.40425 259.23927 267.57926 275.91926 280.08927 285.08427 294.24928 302.58927 307.58427 311.75428 325.08927 333.42927 341.76927 350.93428 359.27427 363.44429 375.1143 383.45429 387.6243 393.4593 401.7993 405.9693 419.3043 428.4693 434.3043 442.6443">Let&#x2019;s all agree that maybe we&#x2019;re more </tspan><tspan y="-528.324" x="176.4213 184.76129 188.93129 193.10129 201.44129 209.78128 213.95128 218.94628 228.11127 236.45127 245.61626 249.78626 261.45628 269.79627 273.96629 282.30628 288.14128 296.48127 300.65129 309.81629 313.9863 318.9813 323.9763 332.31629 338.15129 346.49128 355.65629 360.65129 364.8213 368.9913 377.3313 386.4963 395.66133 399.83134 404.82633 413.99134 422.33134 427.32633 431.49635 439.83634">alike than we are different, and that ev</tspan></text>
<text fill="#a0cecb" xml:space="preserve" transform="matrix(1 0 -0 1 -160.637 605.948)" font-size="15" font-family="Helvetica" font-weight="bold"><tspan y="-528.324" x="448.1613">-</tspan></text>
<text fill="#a0cecb" xml:space="preserve" transform="matrix(1 0 -0 1 -160.637 605.948)" font-size="15" font-family="Helvetica" font-weight="bold"><tspan y="-510.32398" x="176.4213 184.76129 190.5963 198.9363 208.10129 217.26628 225.60628 229.22878 237.56877 241.73877 250.90377 260.06877 265.06376 269.23377 277.57377 281.74378 290.90879 299.24879 307.58879 315.92878 324.26878 329.26377 338.42878 344.26377 351.49977 355.66978 359.83979 369.0048 377.3448 382.33979 385.95179 394.29179 398.4618 406.8018 415.9668 424.3068 430.14179 438.48179">eryone&#x2019;s got a backstory. Let&#x2019;s share </tspan><tspan y="-492.32398" x="176.4213 185.58629 194.75128 200.58629 204.75629 213.92128 225.59128 234.75627 238.92627 247.26627 256.43128 265.59629 269.7663 278.9313 287.2713 292.2663 296.4363 304.7763 313.9413 319.7763 323.94633 333.11134 342.27635 350.61634 354.78636 363.12635 372.29136 381.45637 390.62138 395.61637 399.78639 404.78138 413.94639 422.28639 426.4564 432.29139 440.63139">our own and get curious about theirs.</tspan><tspan y="-474.32398" x="176.4213"> </tspan><tspan y="-456.32398" x="176.4213 185.58629 194.75128 200.58629 204.75629 213.92128 223.08628 231.42627 235.59627 243.93627 252.27626 260.61628 269.78129 273.9513 283.1163 292.2813 296.45133 300.62135 304.79136 313.13136 318.12635 321.72636 330.06636 334.23637 342.57637 350.91636 359.25636 363.42637 375.09638 384.26139 392.60139 397.59638 401.7664 405.9364 410.9314 414.54643 422.8864 427.05644 431.22645 435.39646 443.73646 452.07646">For one evening, let&#x2019;s see what it&#x2019;s like </tspan><tspan y="-438.32398" x="176.4213 181.41629 190.58129 194.75128 203.91628 209.75128 218.09128 226.43128 234.77127 238.94127 248.10626 257.27128 262.26628 266.43629 275.6013 280.59629 284.7663 293.9313 303.0963 308.9313 313.10133 321.4413 325.61134 329.78135 338.94636 347.28636 351.45637 355.62638 364.79139 373.13139 381.47138 390.63639 399.8014 408.9664 413.1364 422.30143 431.46644 437.30143">to break out of our silos, beyond our </tspan><tspan y="-420.32398" x="176.4213 184.76129 193.10129 197.27129 201.44129 205.61128 214.77628 223.94127 233.10626 242.27126 250.61125 258.95127 263.12129 271.46128 280.62629 289.7913 293.9613 298.13133 306.4713 314.8113 320.6463 329.8113 333.98133 347.3163 356.48133 362.3163 370.6563 374.82633 383.16633 392.33134 401.49635 410.66136 415.65635 419.82637 427.32637 432.32136 441.48637 449.82637">cell phones and learn more about &#x201c;the </tspan><tspan y="-402.32398" x="176.4213 185.58629 190.58129 199.74628 208.08628 213.92128 221.42128 225.59128 229.76128 238.92627 247.26627 252.26126 255.87477 264.21479 268.3848 273.3798 282.5448 288.3798 301.71479 305.8848 315.0498 324.2148 333.37983 338.37483 347.53984 356.70484 360.87486 369.21485 373.38487 377.55488 381.72489 390.06489 399.2299 407.5699 415.90989">other&#x201d;. Let&#x2019;s form pop-up villages </tspan><tspan y="-384.32398" x="176.4213 184.76129 193.92629 203.09128 207.26128 216.42627 220.59627 228.93627 237.27626 246.44126 254.78125 263.12126 268.95625 273.12626 284.79627 293.13627 297.30628 305.64628 311.48127 319.82127 323.99128 333.15629 342.3213 347.31629 351.4863 359.8263 363.9963 373.16133 382.32633 390.66633 394.83634 399.00636 408.17137 412.34138 421.50639 430.6714 436.50639">and discover we are not alone in our </tspan><tspan y="-366.32398" x="176.4213 185.58629 194.75128 203.91628 212.25627 220.59627 224.76627 228.93627 233.93126 242.27126 250.61125 256.44627 264.78627 268.95628 273.12629 282.2913 288.12629 292.2963 300.6363 305.6313 309.8013 313.9713 322.3113 331.47633 340.64134 344.81135 353.97636 359.81135 368.15135 376.49134 389.82633 398.16633">hopes, fears, grief, and dreams.</tspan><tspan y="-330.32398" x="176.4213 185.58629 193.92629 198.92128 202.53928 210.87928 215.04927 219.21927 227.55927 235.89926 241.73427 250.89926 255.06926 260.06428 269.22929 273.3993 282.5643 288.3993 296.7393 305.07929 313.41929 317.5893 325.9293 330.0993 338.4393 346.7793 355.1193 359.2893 364.2843 373.4493 379.2843 383.4543 395.12434 404.28935 412.62934 417.62434 421.79435 433.46437 441.80436">Let&#x2019;s learn to bravely ask for what we </tspan><tspan y="-312.32398" x="176.4213 185.58629 193.92629 202.26628 211.43128 215.60128 219.77127 228.93627 237.27626 242.27126 245.88475 254.22475 258.39476 262.56477 270.90476 279.24476 288.40977 292.57978 296.7498 305.9148 310.0848 315.0798 324.2448 328.41484 332.58485 336.75486 345.09486 350.08985 358.42985 367.59486 371.76487 380.10487 389.26988 398.43489 402.6049 411.7699">need. Let&#x2019;s lean in to listen and un</tspan></text>
<text fill="#a0cecb" xml:space="preserve" transform="matrix(1 0 -0 1 -160.637 605.948)" font-size="15" font-family="Helvetica" font-weight="bold"><tspan y="-312.32398" x="420.9063">-</tspan></text>
<text fill="#a0cecb" xml:space="preserve" transform="matrix(1 0 -0 1 -160.637 605.948)" font-size="15" font-family="Helvetica" font-weight="bold"><tspan y="-294.32398" x="176.42131 185.5863 193.9263 199.7613 208.1013 213.0963 221.4363 230.60129 239.76628 243.93628 248.10628 258.93629 267.27629 275.61628 283.95628 293.12129 301.46128 309.80128 313.97129 318.96629 328.1313 336.47129 340.6413 352.3113 361.47633 367.3113 371.48133 380.64634 384.81636 396.48637 405.65138 414.81639 418.9864 423.98139">derstand. Because the world won&#x2019;t </tspan><tspan y="-276.32398" x="176.42131 185.5863 193.9263 198.0963 206.4363 215.60129 223.94129 233.10628 242.27127 250.61127 259.77629 263.9463 273.1113 281.4513 285.6213 294.78633 298.95634 307.29634 316.46134 321.45634 325.62635 334.79136 343.13136 351.47135 356.46635 365.63136 371.46635 379.80635 388.14634 392.31636 396.48637 405.65138 414.81639 419.81138 423.98139 433.1464 441.4864">be changed by giant gestures, but by </tspan><tspan y="-258.32398" x="176.42131 189.75632 198.09632 207.2613 215.6013 219.7713 224.7663 228.9363 238.10129 246.44129 250.61128 258.9513 267.2913 272.2863 280.62629 284.7963 293.9613 298.9563 303.1263 311.4663 320.63133 329.79634 335.63133 343.9713 353.13633 361.47633 365.64634 369.81636 373.98637">many tiny acts of courage... </tspan></text>
</g>
</svg>
