<?xml version="1.0" encoding="UTF-8" standalone="no"?>
<!DOCTYPE svg PUBLIC "-//W3C//DTD SVG 1.1//EN" "http://www.w3.org/Graphics/SVG/1.1/DTD/svg11.dtd">
<svg xmlns="http://www.w3.org/2000/svg" xmlns:xlink="http://www.w3.org/1999/xlink" version="1.1" width="630pt" height="610pt" viewBox="0 0 630 610">
<g enable-background="new">
<path transform="matrix(1,0,0,-1,0,810)" d="M 23.701 250.378 L 302.477 250.378 L 302.477 647.218 L 23.701 647.218 Z " fill="#841678"/>
<g id="Layer-1" data-name="Span">
</g>
<text fill="#231f20" xml:space="preserve" transform="matrix(1 0 -0 1 0 810)" font-size="12" font-family="Times"><tspan y="-638.2185" x="23.7007 26.7007 29.7007 32.7007 35.7007 38.7007 41.7007 44.7007 47.7007 50.7007 53.7007 56.7007 59.7007 95.7007 131.7007">               </tspan></text>
<g id="Layer-1" data-name="Span">
</g>
<g id="Layer-1" data-name="Span">
</g>
<g id="Layer-1" data-name="Span">
</g>
<g id="Layer-1" data-name="Span">
</g>
<g id="Layer-1" data-name="Span">
</g>
<g id="Layer-1" data-name="Span">
</g>
<g id="Layer-1" data-name="Span">
</g>
<g id="Layer-1" data-name="Span">
</g>
<g id="Layer-1" data-name="Span">
</g>
<g id="Layer-1" data-name="Span">
</g>
<text fill="#ffffff" xml:space="preserve" transform="matrix(1 0 -0 1 0 810)" font-size="18" font-family="Helvetica" font-weight="bold"><tspan y="-618.6059" x="33.6941 46.6901 57.688104 71.6921 76.6961 82.6901 93.6881 98.6921 110.698108 121.696109 131.7041 138.7061">How to Share</tspan></text>
<text fill="#ffffff" xml:space="preserve" transform="matrix(1 0 -0 1 0 810)" font-size="11" font-family="Helvetica"><tspan y="-592.2059" x="33.6941 37.544099">&#x2022; </tspan></text>
<text fill="#ffffff" xml:space="preserve" transform="matrix(1 0 -0 1 0 810)" font-size="11" font-family="Helvetica"><tspan y="-592.2059" x="51.6901 60.853105 66.9691 72.4691 75.5271 78.5851 81.0271 83.4691 88.9691 92.0271 98.1431 104.259098 110.37509 114.03809 119.53809 122.59609 128.7121 132.37509 138.49109 144.60709 147.04909 150.10709 153.16509 162.32808 164.77008 170.88608 177.00208 180.06008 183.72307 189.83907 195.95507 202.07106 208.18706 211.85005 217.35005 220.40805">Most listeners aren&#x2019;t mind readers. </tspan></text>
<text fill="#ffffff" xml:space="preserve" transform="matrix(1 0 -0 1 0 810)" font-size="11" font-family="Helvetica" font-weight="bold"><tspan y="-592.2059" x="223.47711 230.81412 234.47711 240.59311 244.2561 250.3721 253.4301 259.5461 266.26713 272.98814 277.26713">State your </tspan><tspan y="-579.00588" x="51.69011 58.41111 64.52711 70.643108 77.364109 80.422107 86.5381 89.5961 95.7121 101.828098 106.10709 109.16509">need clearly</tspan></text>
<text fill="#ffffff" xml:space="preserve" transform="matrix(1 0 -0 1 0 810)" font-size="11" font-family="Helvetica"><tspan y="-579.00588" x="115.28109 118.33909 123.83909 129.9551 133.01309 140.9551 147.07109 150.12909 156.24509 162.36109 168.47708 170.91909 173.97708 177.03508 183.15108 189.26708 194.76708 200.88307 203.94107 206.99907 213.11507 216.17307 222.28907 228.40506 234.52106 240.02106 245.52106 248.57906 254.69506 258.35807 261.41609 264.4741 268.1371 273.6371 276.6951 279.7531 285.8691"> so we don&#x2019;t have to guess or try to </tspan><tspan y="-565.80587" x="51.69011 54.44011 57.19011 62.69011 65.74811 71.24811 77.364109 83.4801 87.143108 90.2011 92.643108 98.143108 103.643108 109.7591 115.8751 118.9331 122.5961 128.7121 134.8281 137.2701 143.3861 148.8861 154.3861 157.44409 162.94409 169.06009 175.17609 178.23409 184.35009 189.85009 195.35009 198.40808 201.46608 207.58208 211.24507 214.30307 216.74507 219.80307 223.46607 226.52407">fix your issue (unless you ask for it). </tspan><tspan y="-552.60586" x="33.694108 36.752107 39.810106 42.868104 45.9261 48.9841 52.0421 55.100099 60.600099 63.658098 71.6001 77.716098 83.83209 86.89009 89.94809 95.44809 101.56409 107.680088 110.73808 116.85408 122.97008 129.08608 135.20207 138.26007 140.70207 146.81807 149.87607 152.93407 159.05007 161.49207 166.99207 170.05007 179.21306 185.32906 194.49205 200.60805 206.72405 209.78205">      Is what you need in this moment:</tspan></text>
<text fill="#ffffff" xml:space="preserve" transform="matrix(1 0 -0 1 0 810)" font-size="11" font-family="Helvetica"><tspan y="-539.4058" x="33.694108 69.697109">  </tspan></text>
<text fill="#ffffff" xml:space="preserve" transform="matrix(1 0 -0 1 0 810)" font-size="11" font-family="Helvetica" font-style="italic"><tspan y="-539.4058" x="105.7001 112.4354 115.4934 117.9354 120.3774 125.8774 128.93541 135.0514 141.1674 143.6094 149.7254 155.8414 158.8994 165.0154 171.1314 174.79439 177.85239 183.96839 190.08438 192.52639 198.02639">A listening ear only?</tspan><tspan y="-526.2058" x="33.694108 69.697109 105.7001 112.2253 118.3413 120.7833 123.2253 129.34131 135.4573 138.5153 140.9573 147.0733 153.1893">  Validation?</tspan><tspan y="-513.0058" x="33.694108 69.697109 105.7001 113.0371 119.1531 124.6531 127.0951 132.5951 138.71109">  Advice?</tspan><tspan y="-499.8058" x="33.694108 69.697109 105.7001 113.0371 119.1531 125.2691 128.3271 134.4431 140.5591 144.22209 147.28229 153.39829 159.51428 163.17728 168.67728 174.79328 180.90927 186.40927 189.46727 191.90927 197.40927 203.52527">  Another perspective?</tspan></text>
<text fill="#ffffff" xml:space="preserve" transform="matrix(1 0 -0 1 0 810)" font-size="11" font-family="Helvetica"><tspan y="-486.60578" x="33.694108 69.697109">  </tspan><tspan y="-473.40577" x="33.694108 37.544107 51.69011 59.63211 65.13211 71.24811">&#x2022; Use </tspan></text>
<text fill="#ffffff" xml:space="preserve" transform="matrix(1 0 -0 1 0 810)" font-size="11" font-family="Helvetica" font-weight="bold"><tspan y="-473.40577" x="74.30611 80.422107 83.4801 89.5961 92.6541 99.3751 102.4331 109.1541 115.270099 118.9331 125.049098 128.1071 131.1651">vivid details</tspan></text>
<text fill="#ffffff" xml:space="preserve" transform="matrix(1 0 -0 1 0 810)" font-size="11" font-family="Helvetica"><tspan y="-473.40577" x="137.2811 140.3391 143.3971 149.51309 152.57109 158.68709 164.80309 170.30309 175.80309 179.46608 181.90808 188.02408 194.14008 197.19808 202.69808 208.81407 214.93007 218.59307 221.65106 227.15106 229.59307 232.65106 238.76706 244.88306 247.94106 250.38306 256.49906 262.61506 265.67308"> to describe your situation. </tspan><tspan y="-460.20576" x="51.69011 59.63211 65.74811 68.19011 74.30611 77.364109 83.4801 88.9801 92.0381 98.1541 104.270099 110.38609 116.50209 120.16509 125.66509 128.7231 134.8391 140.9551 147.07109">Help us understand </tspan></text>
<text fill="#ffffff" xml:space="preserve" transform="matrix(1 0 -0 1 0 810)" font-size="11" font-family="Helvetica" font-weight="bold"><tspan y="-460.20576" x="150.1401 156.2561 162.9771 169.69809">your</tspan></text>
<text fill="#ffffff" xml:space="preserve" transform="matrix(1 0 -0 1 0 810)" font-size="11" font-family="Helvetica"><tspan y="-460.20576" x="173.9771 177.0351 183.1511 189.26709 192.93009 198.43009 204.54608 210.66208 216.77808 219.22008 222.27808 228.39408 233.89408 240.01007 246.12607 249.78907 252.23107 258.34709 264.46308 269.96308 276.07908"> personal experience </tspan><tspan y="-447.00575" x="51.69011 57.80611 63.92211 70.03811 73.09611 75.53811 84.70111 90.81711 96.933109 99.37511 105.491107 111.6071 114.6651 122.6071 128.7231 134.8391 137.8971 140.9551 143.3971 146.4551 148.71889 154.21889 157.27689 159.71889 162.16089 167.66089 173.77689 176.83489 179.89289 186.00888 189.06688 195.18288 201.29888 204.35688 209.85688 215.97287 222.08887">and imagine what it&#x2019;s like to be you.</tspan></text>
<text fill="#ffffff" xml:space="preserve" transform="matrix(1 0 -0 1 0 810)" font-size="11" font-family="Helvetica"><tspan y="-420.60575" x="33.694108 37.544107">&#x2022; </tspan></text>
<text fill="#ffffff" xml:space="preserve" transform="matrix(1 0 -0 1 0 810)" font-size="11" font-family="Helvetica"><tspan y="-420.60575" x="51.69011 59.02711 65.14311 71.25911 77.37511 82.87511 85.933109 88.991107 95.1071 98.1651 103.6651 109.7811 115.897098 121.397098 127.51309 133.01309 136.07109 142.18709 148.30309 151.96608 155.02408 157.46608 163.58208 169.69808 175.81407 178.87207 181.93007 184.37207 190.48807 193.54607 199.66207 202.72006 208.83606 214.95206 221.06806 227.18405 230.24205 233.30005 238.80005 244.91605 251.03205 254.69504">Speak to convey pertinent info about your </tspan></text>
<text fill="#ffffff" xml:space="preserve" transform="matrix(1 0 -0 1 0 810)" font-size="11" font-family="Helvetica" font-weight="bold"><tspan y="-407.40574" x="51.69011 55.35311 61.469114 67.58511 70.64311 73.70111 80.42211 87.14311">feelings</tspan></text>
<text fill="#ffffff" xml:space="preserve" transform="matrix(1 0 -0 1 0 810)" font-size="11" font-family="Helvetica"><tspan y="-407.40574" x="93.25911 96.31711 98.7701 105.9135 111.4135 117.529499 119.9715 126.087497 129.1455 132.80849 138.92449 145.04048 151.15648 157.27248 166.43547 169.49347 175.60947 181.72547 184.78347 190.89946 193.34146 195.78347 201.28347 204.34146 207.39946 213.51546 216.57346 219.32346 222.07346 224.51546 226.95746 230.01546 232.45746 238.57346 241.63146 247.74745 255.68946 261.18946 269.13145 275.24745 278.91044 285.02644">. Avoid random details to fill in awkward </tspan><tspan y="-394.20573" x="51.69011 57.80611 63.92211 70.03811 75.53811 78.59611 81.03811 87.154109 90.212108 93.2701 99.3861 105.5021 108.5601 114.0601 120.176097 126.29209 131.79209 137.90808 141.57108 147.07108 153.18708 156.24507 158.68708 164.80307 170.91907 173.97707 177.03507 184.97707 187.41907 192.91907 199.03507 202.09307 207.59307 213.70906 219.82506 225.32506 231.44106 235.10405 240.60405 246.72005 249.77805 252.22005 258.33607 264.45207 269.95207">gaps in the conversation. Rich conversations </tspan><tspan y="-381.0057" x="51.69011 57.80611 60.24811 62.690114 68.806118 76.748119 79.806118 82.86411 88.98011 92.64311">allow for </tspan></text>
<text fill="#ffffff" xml:space="preserve" transform="matrix(1 0 -0 1 0 810)" font-size="11" font-family="Helvetica" font-weight="bold" font-style="italic"><tspan y="-381.0057" x="95.70111 101.81711 104.87511 107.933109 114.0491 120.7701 126.8861">silence</tspan></text>
<text fill="#ffffff" xml:space="preserve" transform="matrix(1 0 -0 1 0 810)" font-size="11" font-family="Helvetica"><tspan y="-381.0057" x="133.0021 136.0601 142.1761 147.6761 150.7341 159.8971 166.01309 171.51309 177.62909 180.68709 186.80309 192.30309 195.36109 200.86109 206.97708 213.09308 219.20908 224.70908 230.82508"> as much as speech.</tspan></text>
<text fill="#ffffff" xml:space="preserve" transform="matrix(1 0 -0 1 0 810)" font-size="11" font-family="Helvetica"><tspan y="-354.6057" x="33.694108 37.544107 51.69011 59.63211 65.13211 71.24811 74.30611">&#x2022; Use &#x201c;</tspan></text>
<text fill="#ffffff" xml:space="preserve" transform="matrix(1 0 -0 1 0 810)" font-size="11" font-family="Helvetica" font-weight="bold"><tspan y="-354.6057" x="77.96911">I</tspan></text>
<text fill="#ffffff" xml:space="preserve" transform="matrix(1 0 -0 1 0 810)" font-size="11" font-family="Helvetica"><tspan y="-354.6057" x="81.02711 84.69011 87.74811 93.24811 96.30611 102.422107 105.4801 111.5961 120.7591 126.8751 132.9911 136.0491 141.5491 144.6071 147.6651 155.0021 161.1181 167.2341 173.3501 178.8501 181.9081 184.9661 188.62909 194.74509">&#x201d; statements. Speak from</tspan></text>
<text fill="#ffffff" xml:space="preserve" transform="matrix(1 0 -0 1 0 810)" font-size="11" font-family="Helvetica" font-weight="bold"><tspan y="-354.6057" x="203.90808 206.96608 213.08208 219.80307 226.52407 230.80307 233.86107 240.58206 246.69806 250.97707 257.09309 263.8141 269.93009 276.04609"> your perspec-</tspan><tspan y="-341.4057" x="51.69011 55.35311 58.41111 64.52711 70.643108 73.7011">tive, </tspan></text>
<text fill="#ffffff" xml:space="preserve" transform="matrix(1 0 -0 1 0 810)" font-size="11" font-family="Helvetica"><tspan y="-341.4057" x="76.7591 82.8751 88.9911 92.049098 95.10709 101.22309 107.33909 110.39709 113.455089 119.57108 125.68708 128.74509 134.86109 140.97708 147.09308 153.20908 155.65108 158.70908 161.76708 167.88307 170.94107 173.99907 180.11507 183.17307 189.28907 195.40506 199.06806 204.56806 207.62606">not on the behalf of others. </tspan></text>
<text fill="#ffffff" xml:space="preserve" transform="matrix(1 0 -0 1 0 810)" font-size="11" font-family="Helvetica"><tspan y="-315.0057" x="33.694108 37.544107">&#x2022; </tspan></text>
<text fill="#ffffff" xml:space="preserve" transform="matrix(1 0 -0 1 0 810)" font-size="11" font-family="Helvetica"><tspan y="-315.0057" x="51.69011 59.63211 65.74811 71.24811 77.364109">Have </tspan></text>
<text fill="#ffffff" xml:space="preserve" transform="matrix(1 0 -0 1 0 810)" font-size="11" font-family="Helvetica" font-weight="bold"><tspan y="-315.0057" x="80.422107 87.143108 93.2591 96.922107 99.9801 106.0961 112.8171 118.9331">patience</tspan></text>
<text fill="#ffffff" xml:space="preserve" transform="matrix(1 0 -0 1 0 810)" font-size="11" font-family="Helvetica"><tspan y="-315.0057" x="125.049098 128.1071 130.9682 137.6892 143.80519 146.2472 151.7472 154.80519 163.96819 170.08419 175.58419 178.64218 181.70018 187.81618 193.31618 199.43218 202.49018 208.60617 211.66417 214.72217 220.83817 228.78017 231.83817 235.50116 241.61716 247.73316 253.84915 259.96516 265.46516 268.52317 270.9817 277.71699">. This may take a few rounds. A </tspan><tspan y="-301.8057" x="51.69011 57.80611 63.92211 70.03811 76.154109 79.212108 85.3281 91.4441 96.9441 102.4441 105.5021 111.618099 117.73409 123.85009 126.90809 129.9661 136.08209 139.74509 142.80309 148.91909 151.97708 157.47708 163.59308 169.70908 175.20908 181.32508 184.98807 190.48807 196.60407 199.66207 202.10407 208.22006 214.33606 217.39406 219.83606 225.33606 228.39406 230.83606 233.27806 238.77806 244.89406 247.95206 254.06806 257.12608 259.56806 265.68406 271.80006">good back and forth conversation is like a jour</tspan></text>
<text fill="#ffffff" xml:space="preserve" transform="matrix(1 0 -0 1 0 810)" font-size="11" font-family="Helvetica"><tspan y="-301.8057" x="275.4851">-</tspan></text>
<text fill="#ffffff" xml:space="preserve" transform="matrix(1 0 -0 1 0 810)" font-size="11" font-family="Helvetica"><tspan y="-288.60569" x="51.69011 57.80611 63.92211 66.36411 68.806118 74.306118 77.36411 79.806118 85.306118 88.36411 90.806118 96.92211 103.03811 109.154109 111.59611 115.25911 120.75911 123.81711 129.9331 136.0491 142.1651 145.2231 151.3391 157.4551 159.8971 166.01309 171.51309 174.57109 180.07109 182.51309 188.62909 192.29209 194.73409 197.79209 203.29209 206.35009 214.29209 220.40808 226.52408 229.58208 232.64008 238.14008 244.25608 250.37207 253.43007 259.54609 265.66209 271.77809 277.89408 280.9521">nalistic inquiry and helps clarify what you need. </tspan><tspan y="-275.40568" x="51.69011 59.02711 64.527118 67.58511 73.08511 79.20111 85.31711 88.37511 93.87511 99.991107 106.1071 109.1651 111.6071 117.7231 123.839099 129.9551 133.01309 136.07109 142.18709 144.62909 150.12909 152.57109 158.68709 164.80309 167.86109 170.91909 176.41909 182.53508 188.65108 191.70908 200.87207 206.98807 212.48807 215.54607 221.04607 227.16207 233.27806 239.39406 245.51006 251.62606 254.68405 260.18406 266.30006 272.41606 276.07905">As you continue talking, you may change your </tspan><tspan y="-262.20567" x="51.69011 60.85311 63.295114 69.41111 75.52711 78.585109 84.7011 90.8171 96.9331 103.049098 106.10709 109.16509 117.10709 123.22309 129.3391 132.3971 135.4551 140.9551 147.07109 153.18709 156.24509 162.36109 168.47708 174.59308 180.70908">mind about what you need.</tspan></text>
<path transform="matrix(1,0,0,-1,0,810)" d="M 328.397 250.379 L 606.99 250.379 L 606.99 647.219 L 328.397 647.219 Z " fill="#08a79e"/>
<g id="Layer-1" data-name="Span">
</g>
<g id="Layer-1" data-name="Span">
</g>
<g id="Layer-1" data-name="Span">
</g>
<g id="Layer-1" data-name="Span">
</g>
<g id="Layer-1" data-name="Span">
</g>
<g id="Layer-1" data-name="Span">
</g>
<g id="Layer-1" data-name="Span">
</g>
<g id="Layer-1" data-name="Span">
</g>
<g id="Layer-1" data-name="Span">
</g>
<g id="Layer-1" data-name="Span">
</g>
<g id="Layer-1" data-name="Span">
</g>
<g id="Layer-1" data-name="Span">
</g>
<g id="Layer-1" data-name="Span">
</g>
<g id="Layer-1" data-name="Span">
</g>
<g id="Layer-1" data-name="Span">
</g>
<g id="Layer-1" data-name="Span">
</g>
<text fill="#ffffff" xml:space="preserve" transform="matrix(1 0 -0 1 0 810)" font-size="18" font-family="Helvetica" font-weight="bold"><tspan y="-617.9146" x="342.7619 355.7579 366.7559 380.7599 385.7639 395.42628 406.42427 411.42826 422.42625 427.43025 437.43824 443.43223 453.44023">How To Listen</tspan></text>
<text fill="#ffffff" xml:space="preserve" transform="matrix(1 0 -0 1 0 810)" font-size="11" font-family="Helvetica" font-weight="bold"><tspan y="-617.9146" x="464.4289"> </tspan></text>
<text fill="#ffffff" xml:space="preserve" transform="matrix(1 0 -0 1 0 810)" font-size="11" font-family="Helvetica"><tspan y="-591.5146" x="342.7579 346.6079">&#x2022; </tspan></text>
<text fill="#ffffff" xml:space="preserve" transform="matrix(1 0 -0 1 0 810)" font-size="11" font-family="Helvetica"><tspan y="-591.5146" x="360.7539 368.0909 374.2069 380.3229 386.4389 389.49693 392.55494 398.67094 401.72895 407.22895 413.34495 419.46095 424.96095 431.07695 434.13496 440.25096 443.30897">Adopt a sense of </tspan></text>
<text fill="#ffffff" xml:space="preserve" transform="matrix(1 0 -0 1 0 810)" font-size="11" font-family="Helvetica" font-weight="bold"><tspan y="-591.5146" x="446.36698 452.48298 459.20399 463.48298 466.541 473.262 479.378 482.436 486.099">curiosity</tspan></text>
<text fill="#ffffff" xml:space="preserve" transform="matrix(1 0 -0 1 0 810)" font-size="11" font-family="Helvetica"><tspan y="-591.5146" x="492.215">.</tspan></text>
<text fill="#ffffff" xml:space="preserve" transform="matrix(1 0 -0 1 0 810)" font-size="11" font-family="Helvetica"><tspan y="-565.11459" x="342.7579 346.6079">&#x2022; </tspan></text>
<text fill="#ffffff" xml:space="preserve" transform="matrix(1 0 -0 1 0 810)" font-size="11" font-family="Helvetica"><tspan y="-565.11459" x="360.7539 363.81193 366.86994 369.92796 376.04396 382.15995 385.21797 388.27598 393.77598 396.21797 402.33396 408.44996 411.51124 414.56925">If not clear, </tspan></text>
<text fill="#ffffff" xml:space="preserve" transform="matrix(1 0 -0 1 0 810)" font-size="11" font-family="Helvetica" font-weight="bold" font-style="italic"><tspan y="-565.11459" x="417.62727 423.74327 429.85926">ask</tspan></text>
<text fill="#ffffff" xml:space="preserve" transform="matrix(1 0 -0 1 0 810)" font-size="11" font-family="Helvetica"><tspan y="-565.11459" x="435.97526 439.03327 446.97526 453.09126 459.20726 462.26527 465.32328 468.3813 474.49729 480.61329 483.6713 489.7873 495.9033 499.56629 505.06629 511.18229 517.2983 520.35629 525.85629 531.9723 538.0883 541.75137 544.19338 550.3094 556.4254"> what the person sharing </tspan><tspan y="-551.91458" x="342.7579 345.81593 348.87394 351.93196 354.98997 358.04798 361.106 367.222 373.33799 379.45399 385.56999 391.06999 394.128 397.186 400.849 406.965 416.128 419.186 424.686 430.802 436.918 439.976 443.03404 450.37104 455.87104 458.92906">      needs from you. Ex: </tspan></text>
<text fill="#ffffff" xml:space="preserve" transform="matrix(1 0 -0 1 0 810)" font-size="11" font-family="Helvetica" font-style="italic"><tspan y="-551.91458" x="461.9759 465.6389 475.8282 481.94419 488.06019 490.50218 496.61817 499.6806 505.1806 511.2966 517.4126 520.4728 522.9148 525.3568 530.8568 536.97286 540.0341 549.19717 554.69717 557.7529 563.86898 569.985 575.485 577.927 583.427 589.543 592.601 594.053 595.50497 596.9569 598.4089 599.86087 601.3128 602.7648 604.21676 605.6687 607.12069 608.57266">&#x201c;Would you like my advice,            </tspan><tspan y="-538.71456" x="342.75788 345.8159 348.8739 351.93193 354.98994 358.04795 361.10597 367.22196 370.88496 373.94297 380.05897 386.17497 389.23298 394.73298 400.84898 406.96498 410.02299 412.46498 418.58097 424.08097 427.13899 430.197 436.313 442.429 448.54499 454.66099 457.719 466.882 472.998 476.056 479.114 485.23 488.28804 490.73 493.172 498.672 501.73 507.846 513.96206 517.02 520.68307 523.12509 529.2411 535.3571 538.4151 541.4731 547.5891 553.70516 561.64718 567.7632">      or do you just need me to listen right now?&#x201d;</tspan></text>
<text fill="#ffffff" xml:space="preserve" transform="matrix(1 0 -0 1 0 810)" font-size="11" font-family="Helvetica" font-weight="bold"><tspan y="-512.3145" x="342.75788 346.60789 360.75389 368.09089 371.75389 377.86988 383.98588 387.04389 393.7649 398.04389 404.15989 410.27589 416.39189 423.11289">&#x2022; Stay present</tspan></text>
<text fill="#ffffff" xml:space="preserve" transform="matrix(1 0 -0 1 0 810)" font-size="11" font-family="Helvetica"><tspan y="-512.3145" x="426.77589 429.8339 432.2869 439.4303 444.9303 451.0463 453.48829 459.60429 462.6623 471.8253 477.94129 484.05729 487.1153 493.2313 495.67329 498.11528 503.61528 506.67329 512.7893 518.90536 521.34738 523.78939 529.9054 532.3474 538.46347 544.57949 547.63748 553.7535 556.81149 562.31149 568.4275 573.9275 580.0435">. Avoid mentally building a case </tspan><tspan y="-499.1145" x="342.75788 345.8159 348.8739 351.93193 354.98994 358.04795 361.10597 367.22196 373.33796 379.45396 381.89595 388.01194 393.51194 396.56996 399.62797 405.12797 408.18598 414.30198 417.36 423.47599 432.63899 438.75498 444.87098 447.929 453.429 456.487 461.987 468.103 474.219 477.277 483.393 485.835 491.335 497.451 503.567 507.22999 513.346 519.46206 522.52 530.46206 532.90408 535.96206 542.07809 545.13607">      against statements you disagree with. </tspan></text>
<text fill="#ffffff" xml:space="preserve" transform="matrix(1 0 -0 1 0 810)" font-size="11" font-family="Helvetica"><tspan y="-472.7145" x="342.75788 346.60789">&#x2022; </tspan></text>
<text fill="#ffffff" xml:space="preserve" transform="matrix(1 0 -0 1 0 810)" font-size="11" font-family="Helvetica"><tspan y="-472.7145" x="360.75389 366.86988 369.31187 374.81187 377.86988 383.98588 390.10188 393.15989 401.10188 403.54386 406.60188 412.71788 415.77589 421.27589 427.39189 433.50788 437.17088">Listen with your </tspan></text>
<text fill="#ffffff" xml:space="preserve" transform="matrix(1 0 -0 1 0 810)" font-size="11" font-family="Helvetica" font-weight="bold" font-style="italic"><tspan y="-472.7145" x="440.23988 446.35588 452.47187 458.58787 464.70387 467.76188 473.87788 480.59889 487.3199 490.3779 496.4939 502.6099 506.8889">eyes and ears</tspan></text>
<text fill="#ffffff" xml:space="preserve" transform="matrix(1 0 -0 1 0 810)" font-size="11" font-family="Helvetica"><tspan y="-472.7145" x="513.01589 516.07388 518.52688 525.26217 528.3201 530.76217 536.8782 539.93618 542.99417 545.43618 550.93618 553.99417 559.49417 565.61019 568.0522 574.1682">. A lot is said </tspan><tspan y="-459.5145" x="342.75788 345.8159 348.8739 351.93193 354.98994 358.04795 361.10597 367.22196 373.33796 377.00096 379.44294 385.55894 391.67494 394.73295 400.23295 402.67494 405.1169 411.2329 417.3489 420.40693 423.46495 429.58094 435.69694 441.81294 447.31294 450.37095 453.42897 461.98698 468.10298 473.60298 479.71897 483.38197 488.88197 494.99797 498.05598 504.17198 510.28797 516.404 521.904 524.962 527.404 533.52 539.63607 545.7521 551.8681 557.98416 564.10018 570.2162">      during silent gaps. Observe body language.</tspan></text>
<text fill="#ffffff" xml:space="preserve" transform="matrix(1 0 -0 1 0 810)" font-size="11" font-family="Helvetica"><tspan y="-433.1145" x="342.75788 346.60789">&#x2022; </tspan></text>
<text fill="#ffffff" xml:space="preserve" transform="matrix(1 0 -0 1 0 810)" font-size="11" font-family="Helvetica"><tspan y="-433.1145" x="360.75389 367.47489 373.59089 376.03288 382.14888 387.64888 390.70689 393.14888 395.59086 401.09086 407.20686 410.26487 416.38087">Think like a </tspan></text>
<text fill="#ffffff" xml:space="preserve" transform="matrix(1 0 -0 1 0 810)" font-size="11" font-family="Helvetica" font-weight="bold"><tspan y="-433.1145" x="419.43888 422.4969 429.2179 435.9389 440.2179 446.9389 453.0549 456.1129 459.17094 465.28694">journalist</tspan></text>
<text fill="#ffffff" xml:space="preserve" transform="matrix(1 0 -0 1 0 810)" font-size="11" font-family="Helvetica"><tspan y="-433.1145" x="468.9499 472.0079 474.4609 481.7979 487.2979 492.7979">. Ask </tspan></text>
<text fill="#ffffff" xml:space="preserve" transform="matrix(1 0 -0 1 0 810)" font-size="11" font-family="Helvetica" font-weight="bold"><tspan y="-433.1145" x="495.85594 502.57695 509.29795 515.41397 522.13497 525.798 531.914 538.635 545.356 551.47207">open-ended</tspan></text>
<text fill="#ffffff" xml:space="preserve" transform="matrix(1 0 -0 1 0 810)" font-size="11" font-family="Helvetica"><tspan y="-433.1145" x="558.1819 561.23989 564.29788 570.4139 576.5299 582.64596">  ques</tspan></text>
<text fill="#ffffff" xml:space="preserve" transform="matrix(1 0 -0 1 0 810)" font-size="11" font-family="Helvetica"><tspan y="-433.1145" x="588.14596">-</tspan></text>
<text fill="#ffffff" xml:space="preserve" transform="matrix(1 0 -0 1 0 810)" font-size="11" font-family="Helvetica"><tspan y="-419.9145" x="360.7539 363.81193 366.2539 372.3699 378.4859 383.9859 387.0439 392.5439 398.6599 404.1599 410.2759 413.33393 419.44993 424.94993">tions such as:</tspan><tspan y="-406.71449" x="342.7579 378.7609 382.4239 390.9819 397.0979 400.1559 406.2719 412.3879 415.44593 419.10893 422.16694 428.28294 431.94593"> &#x201c;Go on.&#x201d; or </tspan></text>
<text fill="#ffffff" xml:space="preserve" transform="matrix(1 0 -0 1 0 810)" font-size="11" font-family="Helvetica" font-style="italic"><tspan y="-406.71449" x="435.00395 438.66694 449.05094 455.16694 461.28294 464.34095 467.39897 475.34095 481.45695 486.95695 490.01496 493.07298 499.18898 505.30497 508.36299 511.421 513.863 516.305 521.805 527.921 534.03707">&#x201c;What was that like?&#x201d;</tspan><tspan y="-393.51448" x="342.7579 378.7609 382.4239 390.36589 396.48188 401.98188 408.09788 411.15589 416.65589 422.77189 428.88789 431.9459 435.0039 441.1199 443.5619 446.6199 449.67793 452.1199 454.5619 460.0619 466.1779 469.2359 472.2939 478.4099 480.8519 486.3519 489.4099 495.5259 501.6419 504.69993 510.81593 514.47897 520.595 526.711"> &#x201c;Have you felt like this before?&#x201d;</tspan><tspan y="-380.31446" x="342.7579 378.7609 382.4239 392.8079 398.9239 404.4239 407.4819 413.5979 419.7139 422.7719 428.2719 434.3879 440.5039 443.56193 446.61994 452.73594 455.17793 461.2939 466.7939 469.85194 472.90995 479.02595 481.46794 486.96794 490.02595 492.46794 497.96794 501.02595 507.14195 513.25796 516.3159 522.43197 528.548 532.211 534.653 540.76907 546.8851 549.94308 555.44308 561.5591 567.6751 570.7331 576.8491 582.96517 590.90719 597.0232"> &#x201c;Why do you think this is bothering you now?&#x201d;</tspan></text>
<text fill="#ffffff" xml:space="preserve" transform="matrix(1 0 -0 1 0 810)" font-size="11" font-family="Helvetica"><tspan y="-353.91447" x="342.7579 346.6079 360.7539 368.6959 374.1959 380.3119">&#x2022; Use </tspan></text>
<text fill="#ffffff" xml:space="preserve" transform="matrix(1 0 -0 1 0 810)" font-size="11" font-family="Helvetica" font-weight="bold" font-style="italic"><tspan y="-353.91447" x="383.3699 389.4859 395.6019 398.6599 401.71794 408.43894 414.55494 418.21794 421.27595 427.99696">validating</tspan></text>
<text fill="#ffffff" xml:space="preserve" transform="matrix(1 0 -0 1 0 810)" font-size="11" font-family="Helvetica"><tspan y="-353.91447" x="434.7179 437.7759 443.2759 446.33393 452.44993 455.50794 461.62394 470.78694 476.90293 483.01893 486.07695 491.57695 494.63496 497.07695 499.51893 505.01893 511.13493"> statements like:</tspan></text>
<text fill="#ffffff" xml:space="preserve" transform="matrix(1 0 -0 1 0 810)" font-size="11" font-family="Helvetica"><tspan y="-340.71446" x="342.7579"> </tspan></text>
<text fill="#ffffff" xml:space="preserve" transform="matrix(1 0 -0 1 0 810)" font-size="11" font-family="Helvetica" font-style="italic"><tspan y="-340.71446" x="378.7609 382.4239 385.4819 388.53993 391.59794 400.76094 406.87693 412.37693 418.49293 423.99293 427.05094 432.55094 438.66694 444.78294 450.28294 456.39894 459.45695 464.95695 471.07295 477.18894 479.63093 485.74693 488.80494 491.86296 497.97895 504.09495 506.53694 509.59495 512.0369 514.47897 519.97897 526.095 529.15298 532.21096 538.32699 544.443 547.501 550.55899">&#x201c;It makes sense you&#x2019;d feel like that.&#x201d;</tspan><tspan y="-327.51445" x="342.7579 378.7609 382.4239 389.1449 395.2609 401.3769 404.4349 407.49293 416.6559 422.7719 428.2719 431.32994 434.38795 440.50395 446.61994 449.67796 453.34095 459.45695 465.57295 471.68894 477.80494 480.86296"> &#x201c;That must be rough.&#x201d;</tspan><tspan y="-314.31443" x="342.7579 378.7609 382.4239 389.1449 395.2609 401.3769 407.4929 412.9929 416.0509 421.5509 427.6669 433.7829 436.8409 439.89894 446.01493 449.67793 452.73594 458.85194 464.96794 471.08393 477.19993 479.6419 485.7579 491.8739 494.93193 501.0479 507.1639 510.22193"> &#x201c;Thank you for opening up.&#x201d;</tspan></text>
<text fill="#ffffff" xml:space="preserve" transform="matrix(1 0 -0 1 0 810)" font-size="11" font-family="Helvetica"><tspan y="-287.91444" x="342.7579 346.6079">&#x2022; </tspan></text>
<text fill="#ffffff" xml:space="preserve" transform="matrix(1 0 -0 1 0 810)" font-size="11" font-family="Helvetica"><tspan y="-287.91444" x="360.7539 368.6959 377.2539 385.1959 387.63789">DON&#x2019;T</tspan></text>
<text fill="#ffffff" xml:space="preserve" transform="matrix(1 0 -0 1 0 810)" font-size="11" font-family="Helvetica" font-style="italic"><tspan y="-287.91444" x="394.3589 397.4169 399.8589 405.97489 411.47489 417.59089 420.03288 422.47486 428.59086 434.70686 437.76487"> invalidate</tspan></text>
<text fill="#ffffff" xml:space="preserve" transform="matrix(1 0 -0 1 0 810)" font-size="11" font-family="Helvetica"><tspan y="-287.91444" x="443.8919 446.94993 454.8919 457.3339 460.3919 466.5079 469.56593 473.2289 479.3449 484.8449 490.9609 497.0769 503.1929 508.6929 514.8089 520.3089 523.3669 525.8089 528.2509 533.7509 539.86697"> with responses like:</tspan></text>
<text fill="#ffffff" xml:space="preserve" transform="matrix(1 0 -0 1 0 810)" font-size="11" font-family="Helvetica"><tspan y="-274.71443" x="342.7579"> </tspan></text>
<text fill="#ffffff" xml:space="preserve" transform="matrix(1 0 -0 1 0 810)" font-size="11" font-family="Helvetica" font-style="italic"><tspan y="-274.71443" x="378.7609 382.4239 392.6132 398.7292 401.17118 406.67118 412.78718 415.84519 421.96119 424.40318 426.84516 429.90318 436.01918 442.13517 448.25117 454.36717 457.42518 460.4832 466.59919 472.71519 476.37818 482.49418 485.5522 489.21519 492.2732 498.3892 502.0522 505.1102 508.7732 516.7152 522.83126 528.94729 531.3893 534.44729 542.3893 544.8313 547.8893 554.0053 557.0633 559.5053 562.5633 565.6213 569.2843">&#x201c;We&#x2019;ve all been there.&#x201d; or &#x201c;Deal with it.&#x201d; </tspan><tspan y="-261.5144" x="342.7579 378.7609 382.4239 390.36589 396.48188 402.59788 408.71388 412.37687 415.43489 421.55088 427.66688 430.72489 434.38789 437.4459 443.5619 447.22489 450.2829 453.9459 461.2829 464.3409 467.39894 469.8409 475.9569 482.0729 487.5729 490.63093 493.68894 496.74696 499.80497"> &#x201c;Cheer up!&#x201d; or &#x201c;At least...&#x201d;</tspan></text>
<text fill="#24408f" xml:space="preserve" transform="matrix(1 0 -0 1 0 810)" font-size="12" font-family="Helvetica" font-weight="bold"><tspan y="-700.2585" x="17.8618 25.193799 32.5258 39.1978 42.5338 53.201799 56.537797 63.209798 69.8818 73.2178 80.5498 87.8818 91.2178 98.5498 102.5458 105.8818 112.989398 116.32539 123.657398 130.32939 133.66539 140.10579 146.77779 150.11379 156.78578 160.12178 167.45378 174.12578 178.12178 185.45378 192.12578 196.79378 200.12978 207.46178 214.79378 221.46578 224.80178 228.13777 234.80977 238.14577 242.14177 249.47377 252.80977 259.48179 266.15379 273.48579 280.15779 287.48979 294.82179 298.15779 304.82978 308.16578 312.83378 319.50578 322.84178 329.51377 336.18577 339.52177 346.85377 350.84977 354.18577 360.85777 371.52577 378.85777 385.52976 389.52577 396.85777 403.52976 406.86576 414.19776 420.86976 424.20576 430.87776 438.20976 445.54176 452.87376 459.54576 466.21775 470.21376 473.54975 480.88175 488.21376 491.54975 498.88175 502.21775 508.88975 515.56179 520.2298 526.9018 533.5738 536.9098 543.5818 550.91378 561.5818 572.2498 579.5818 586.91378 590.24978 594.2457 597.5817 604.2537 610.9257">The mission of Tiny Talk gatherings is to expand circles of empathy by connecting diverse communities.</tspan></text>
<text fill="#24408f" xml:space="preserve" transform="matrix(1 0 -0 1 0 810)" font-size="12" font-family="Helvetica" font-weight="bold"><tspan y="-685.85848" x="35.201799 38.537797 42.533796 45.425798 52.097799 55.4338 62.7658 69.437808 76.1098 82.7818 90.1138 94.1098 97.4458 104.1178 110.789798 114.12579 120.79779 124.13379 130.80579 134.14179 144.80979 152.14179 155.47779 162.14978 165.48578 168.82178 176.15378 183.48578 187.48178 190.81778 194.81378 201.48578 208.15778 214.82978 221.50177 224.83777 232.16977 236.83777 243.50977 250.18177 254.17777 257.51377 264.18577 270.85777 274.19377 277.52976 280.86576 284.86177 288.19776 294.86976 298.20576 301.54176 304.87776 311.54975 315.54576 322.21775 326.88575 330.88175 337.55375 340.88975 350.22575 353.56175 357.55775 364.88975 368.22575 371.56175 378.23374 384.90574 389.57374 396.90574 400.24174 407.57374 414.90574 418.24174 425.57374 432.90574 442.24174 445.57774 449.57374 456.90574 460.24174 466.91374 474.24574 480.91773 485.58573 492.25773 495.59373 502.26573 509.59773 516.9297 520.2657 527.59768 534.9296 544.2656 547.6016 551.5976 558.92959 562.26559 565.60159 568.93759 575.60958 579.6055 586.2775 593.6095 596.9455">It&#x2019;s deceptively simple, but takes practice. It all starts with learning how to share and how to listen. </tspan></text>
<!-- 
<path transform="matrix(1,0,0,-1,280.0611,610.8959)" stroke-width=".493" stroke-linecap="butt" stroke-miterlimit="10" stroke-linejoin="miter" fill="none" stroke="#24408f" d="M 0 0 L 15.547 0 "/>

<text fill="#99bc3c" xml:space="preserve" transform="matrix(1 0 -0 1 0 810)" font-size="14" font-family="Helvetica" font-weight="bold"><tspan y="-223.8609" x="195.3389 203.6451 207.5371 216.0911 223.87509 227.76709 235.28089 243.06488 246.95688 254.74088 262.52488 267.18687 271.07887 284.29487 292.84886 300.63285 305.29484 309.18684 313.07884 317.7408 321.6328 325.5248 333.3088 337.2008 347.3088 351.2008 364.4168 372.9708 380.7548 385.41679 389.30879 393.20079 397.86277 401.22416 409.00816 412.90016 423.00816 431.56214 436.22413">Tiny Talks: What It Is &#x0026; What It&#x2019;s Not </tspan></text>
<text fill="#24408f" xml:space="preserve" transform="matrix(1 0 -0 1 0 810)" font-size="10" font-family="Helvetica" font-weight="bold"><tspan y="-211.8609" x="59.7779 65.7109 68.4909 74.6009 80.1609 82.940898 88.30789 93.86789 96.64789 102.207889 104.987888 111.097888 116.65788 119.987888 126.097888 131.65789 135.54788 138.32788 144.43788 150.54788 156.10788 158.88788 164.44788 168.33788 173.89788 176.67787 182.23787 188.34787 191.12787 197.23787 203.34787 209.45787 215.56787 219.45787 222.78787 228.89788 235.00788 237.78787 241.11788 246.67787 249.45787 252.78787 258.89787 261.67787 267.23786 271.12788 276.68788 282.24787 285.57786 291.13786 293.91786 299.47785 302.25785 307.81785 313.92784 320.0378 326.1478 332.25779 336.1478 339.47779 342.25779 347.81779 353.37779 356.15779 358.93778 364.49778 370.05778 373.38777 378.94776 381.72776 387.28776 390.06776 392.84776 395.62776 401.18775 407.29774 412.85774 415.63774 421.19773 424.5277 433.41773 439.5277 445.0877 451.1977 457.30769 462.86769 466.7577 472.3177 475.0977 482.8777 488.98768 494.54768 498.43769 503.99769 506.77769 514.5577 520.1177 522.8977 525.67776 531.23776 536.7977 540.68777 546.7977 549.57778 552.9078 556.7978 562.9078">Tiny Talk gatherings are an opportunity to create a supportive, safe village atmosphere where we learn from</tspan></text>
<text fill="#24408f" xml:space="preserve" transform="matrix(1 0 -0 1 0 810)" font-size="10" font-family="Helvetica" font-weight="bold"><tspan y="-199.8609" x="93.6779 99.2379 104.7979 110.357898 116.467899 119.247898 125.357898 128.6879 134.7979 140.3579 144.61989 147.03189 152.59189 155.37189 161.48189 167.04189 170.93189 176.49188 182.60189 188.71189 194.27188 197.05188 199.83188 205.39188 210.95188 217.06188 222.62187 226.51187 229.29187 234.85187 240.96187 246.52187 252.08187 257.64189 260.42189 263.20188 265.98188 269.31187 271.72486 277.28486">each other&#x2019;s personal experiences. It&#x2019;s </tspan></text>
<text fill="#24408f" xml:space="preserve" transform="matrix(1 0 -0 1 0 810)" font-size="10" font-family="Helvetica" font-weight="bold"><tspan y="-199.8609" x="280.06486 286.17485 292.28483 295.6148 298.3948 303.9548 306.7348 312.2948 318.4048 323.96479 329.52479 335.08479 337.86479 341.19477 347.30476 350.08476 355.64476 361.75474 367.86473 373.4247 379.5347 385.0947 387.8747 390.6547 396.76469 399.54469 405.10469 407.88468 413.99467 417.88468 423.99467 429.55467 435.66465 438.44465 441.22465 447.33464 452.89463 459.0046 465.1146 468.44459 474.55458 480.11457 483.44456 486.22456 491.78456 497.34455 500.12455 502.90455 509.01454 514.5745 520.6845 526.2445 529.5745 535.1345 537.91458">not a space to engage in a broad, hypothetical debate. </tspan></text>
<text fill="#005695" xml:space="preserve" transform="matrix(1 0 -0 1 0 810)" font-size="10" font-family="Helvetica" font-weight="bold"><tspan y="-199.8609" x="540.6679"> </tspan></text>
<text fill="#f7901e" xml:space="preserve" transform="matrix(1 0 -0 1 0 810)" font-size="14" font-family="Helvetica" font-weight="bold"><tspan y="-166.2609" x="214.7632 224.1012 231.8852 239.66919 245.11519 252.89919 261.4532 270.00718 277.79118 281.68318 285.57518 293.35917 297.25117 305.03517 308.92716 316.44795 324.23194 332.78593 336.67793 344.4619 348.3539 360.0159 368.5699 377.12388 384.90788 390.35389 398.13789 402.79988 411.35386">Everyone is a Table Moderator</tspan></text>

<g id="Layer-1" data-name="Span">
</g>
<g id="Layer-1" data-name="Span">
</g>
<g id="Layer-1" data-name="Span">
</g>

<text fill="#24408f" xml:space="preserve" transform="matrix(1 0 -0 1 0 810)" font-size="10" font-family="Helvetica" font-weight="bold"><tspan y="-154.2609" x="95.2588 103.038799 109.148799 114.70879 120.26879 123.59879 129.1588 131.9388 135.2688 140.8288 146.3888 151.94879 154.72879 158.05879 164.1688 168.05879 174.1688 179.72879 182.50879 191.39879 197.50879 203.61879 209.17879 213.06879 218.62879 221.95879 224.73879 230.84879 236.95879 239.73879 245.29878 250.85878 256.4188 262.52879 265.30879 268.63877 271.41877 280.30879 285.86878 288.64878 294.75877 300.31877 308.09877 310.87876 316.43876 322.54875 328.65873 331.9887 337.5487 343.6587 346.98869 349.76869 352.54869 358.10868 360.88868 366.99867 370.88868 376.44868 382.00868 387.56867 393.67866 397.00865 402.56864 408.67863 411.45863 414.23863 419.5996 425.1596 431.2696 434.0496 439.6096 442.3896 451.2796 457.3896 463.49958 469.05958 472.9496 478.50959 481.83958 487.94956 491.83958 497.39958 500.17958 505.73957 511.84956 517.40957 523.51956 527.40957 532.96957 536.29959">Guests take turns moderating each time new content is presented. Table moderators ensure: </tspan><tspan y="-142.2609" x="23.008797"> </tspan><tspan y="-130.2609" x="167.6788 173.2388 176.5688 179.3488 186.0188 191.5788 197.1388 203.2488 206.0288 212.1388 217.69879 221.58879 227.14879 233.25879 239.36879 242.14879 247.70879 251.03879 253.81879 257.14878 263.25877 268.81877 271.59877 274.92875 280.48875 286.59873 289.37873 294.93873 297.71873 303.8287 309.3887 314.9487 317.7287 323.2887 326.0687 331.6287 337.73869 343.29869 349.40867 354.96867 360.52867 363.30867 366.63865 372.74864 375.52864 381.08863 387.1986 392.7586 398.3186 403.8786 406.6586 409.9886 416.09858 419.9886 422.7686 426.09858 432.20857 434.98857 441.09855 446.65855 452.21855 457.77854 461.10853">1) Each person at the table has a chance to speak (or to pass).</tspan></text>
<text fill="#24408f" xml:space="preserve" transform="matrix(1 0 -0 1 0 810)" font-size="10" font-family="Helvetica" font-weight="bold"><tspan y="-118.260898" x="103.2188 105.9988 113.2188 119.328807 122.1088 128.2188 134.3288 139.8888 142.6688 148.22879 154.33879 159.89879 165.45879 171.01879 176.57878 180.46878 183.24878 189.35878 195.46878 204.35878 207.13878 213.24878 218.80878 222.13878 227.69878 233.25878 236.03878 239.36878 245.47878 251.03878 253.81877 259.37879 265.48878 271.59877 277.15876 282.71876 286.60877 292.16877 297.72877 301.05876 303.83876 309.94874 316.05873 318.8387 321.6187 324.3987 327.7287 330.5087 336.0687 342.17869 348.28868 351.06867 354.95869 360.51869 363.29869 368.85868 374.96867 377.74867 383.30867 388.86866 392.19865 396.08866 402.19865 407.75865 413.31864 417.20866 420.53865 423.31864 428.87864 434.98863 441.0986 443.8786 449.9886 455.54859 461.10859 466.66859 469.44859 475.00859 481.11857 486.67857 490.56858 496.12858 502.23857 505.01856 510.57856 513.3586 516.1386 522.2486 525.5786"> No one speaker dominates the conversation. If you&#x2019;re an extrovert and have shared a lot,</tspan></text>
<text fill="#24408f" xml:space="preserve" transform="matrix(1 0 -0 1 0 810)" font-size="10" font-family="Helvetica" font-weight="bold"><tspan y="-106.260898" x="131.0388 137.1488 142.7088 145.4888 154.3788 157.1588 163.2688 169.3788 172.7088 178.8188 181.5988 184.3788 190.4888 193.8188 196.5988 199.9288 206.0388 211.5988 214.3788 217.1588 223.2688 226.5988 230.4888 236.5988 242.1588 247.7188 251.6088 254.9388 260.4988 263.2788 271.0588 277.1688 283.27879 286.05879 294.9488 300.5088 306.0688 308.8488 314.95878 320.51878 323.29878 328.85877 334.96876 343.85877 352.74879 358.85877 364.96876 367.74876 373.85874 379.96873 382.74873 388.8587 394.9687 397.7487 401.07868 407.18867 412.74867 415.52867 421.08866 427.19865 433.30863 437.19865 442.75865 448.86863 454.42863 457.20863 460.5386 466.6486 469.4286 474.9886 481.09858 486.65858 492.21858 497.77857 500.55857">be mindful of the introverts who may be summoning up the courage to speak. </tspan><tspan y="-94.260898" x="23.008797 333.77879 336.55879">   </tspan><tspan y="-82.260898" x="23.00879 122.71879 128.2788 131.6088 134.0228 140.87779 146.43779 152.54779 155.32779 161.43779 164.21779 169.77779 173.66779 179.77779 185.33779 190.89778 194.22779 197.55779 203.11779 205.89778 211.45778 214.23778 217.56778 223.12778 229.23778 235.34778 240.90778 246.46778 250.35778 255.91777 261.47779 264.80778 267.58778 273.69776 279.80775 282.58775 285.91773 292.0277 297.5877 300.9177 303.6977 309.80769 315.91767 321.47767 327.03767 329.81767 335.92765 342.03764 345.3676 348.1476 352.03764 357.59764 360.37763 365.93763 369.2676 374.8276 377.6076 380.9376 387.04759 389.82759 393.15757 399.26756 404.82756 407.60755 416.49757 422.05757 424.83757 430.94755 433.72755 437.05754 443.1675 449.2775 452.0575 457.6175 460.3975 466.50749 472.06748 474.84748 480.95747 487.06745 489.84745 495.95744 498.73744 504.29743 509.85743 515.9674 521.5274 527.0874 532.6474 538.7334 542.0634"> 2) Avoid cross-talk (conversation that does not relate to the main topic being discussed).</tspan><tspan y="-70.260898" x="312.99879"> </tspan></text>
<text fill="#24408f" xml:space="preserve" transform="matrix(1 0 -0 1 0 810)" font-size="10" font-family="Helvetica" font-weight="bold"><tspan y="-58.260896" x="91.06877 96.62877 99.95877 102.37277 109.227779 114.78777 120.89777 123.67777 129.78777 132.56777 138.12776 140.90776 147.01776 152.57776 155.35776 160.91776 167.02776 173.13776 178.69776 184.25775 188.14775 193.70775 199.26775 202.59775 205.37775 211.48775 217.59775 223.15775 225.93775 228.71775 236.49774 242.60774 245.38774 250.94774 253.72774 259.28776 262.06776 268.17774 274.28773 277.06773 282.62773 285.4077 290.9677 297.0777 303.18769 308.74769 314.30769 318.1977 323.7577 329.3177 332.64768 335.42768 341.53767 347.64765 353.20765 355.98765 358.76765 367.65766 373.21766 378.77766 384.88764 387.66764 393.77763 399.8876 402.6676 410.4476 417.6676 424.33763 427.1176 433.2276 438.7876 442.6776 448.2376 454.3476 460.45759 463.23759 468.79759 472.12757 474.90757 480.46757 483.24757 486.57756 489.35755 498.24757 503.80757 506.58757 512.1476 518.25759 523.81759 529.37759 534.93759">3) Avoid side conversations. Only single conversations, meaning ONE person at a time speaks</tspan></text>
<text fill="#24408f" xml:space="preserve" transform="matrix(1 0 -0 1 0 810)" font-size="10" font-family="Helvetica" font-weight="bold"><tspan y="-46.260896" x="205.75878 209.08878 215.19878 217.97878 221.30878 227.41878 232.97878 235.75878 243.53878 249.64878 255.75878 258.5388 264.0988 266.87879 270.20878 275.76878 281.87876 284.65876 290.21876 292.99876 295.77876 301.33876 307.44874 313.55873 316.3387 319.6687 325.7787 331.33869 334.11869 341.89869 348.00868 354.11866 356.89866 362.45866 365.23866 368.56864 374.12864 380.23863 383.01863 388.5786 391.3586 394.1386 396.9186 402.4786 405.8086 411.3686 417.47859 423.03858">to the whole table, and the whole table listens.</tspan></text>
-->

<text fill="#24408f" xml:space="preserve" transform="matrix(1 0 -0 1 0 810)" font-size="22.08" font-family="HelveticaNeue" font-weight="bold"><tspan y="-729.0839" x="264.1419 277.63279 283.32945 296.42289 307.88243 314.02067 325.06068 337.7346 343.43125 356.10517">Tiny Talks</tspan></text>

<clipPath id="cp0">
<path transform="matrix(1,0,0,-1,0,810)" d="M 0 0 L 630 0 L 630 810 L 0 810 Z "/>
</clipPath>
<g clip-path="url(#cp0)">
<path transform="matrix(1,0,0,-1,392.6802,38.91913)" d="M 0 0 C -3.181 0 -5.76 -2.579 -5.76 -5.76 C -5.76 -8.941 -3.181 -11.52 0 -11.52 C 3.181 -11.52 5.76 -8.941 5.76 -5.76 C 5.76 -2.579 3.181 0 0 0 " fill="#ffd666"/>
<path transform="matrix(1,0,0,-1,371.1402,38.91913)" d="M 0 0 C -3.181 0 -5.76 -2.579 -5.76 -5.76 C -5.76 -8.941 -3.181 -11.52 0 -11.52 C 3.181 -11.52 5.76 -8.941 5.76 -5.76 C 5.76 -2.579 3.181 0 0 0 " fill="#841678"/>
<path transform="matrix(1,0,0,-1,349.6002,38.755617)" d="M 0 0 C -3.181 0 -5.76 -2.579 -5.76 -5.76 C -5.76 -8.941 -3.181 -11.52 0 -11.52 C 3.181 -11.52 5.76 -8.941 5.76 -5.76 C 5.76 -2.579 3.181 0 0 0 " fill="#d4562a"/>
<path transform="matrix(1,0,0,-1,327.5646,38.91913)" d="M 0 0 C -3.181 0 -5.76 -2.579 -5.76 -5.76 C -5.76 -8.941 -3.181 -11.52 0 -11.52 C 3.181 -11.52 5.76 -8.941 5.76 -5.76 C 5.76 -2.579 3.181 0 0 0 " fill="#24408f"/>
<path transform="matrix(1,0,0,-1,305.5291,38.91913)" d="M 0 0 C -3.181 0 -5.76 -2.579 -5.76 -5.76 C -5.76 -8.941 -3.181 -11.52 0 -11.52 C 3.181 -11.52 5.76 -8.941 5.76 -5.76 C 5.76 -2.579 3.181 0 0 0 " fill="#306e30"/>
<path transform="matrix(1,0,0,-1,283.4935,38.755617)" d="M 0 0 C -3.181 0 -5.76 -2.579 -5.76 -5.76 C -5.76 -8.941 -3.181 -11.52 0 -11.52 C 3.181 -11.52 5.76 -8.941 5.76 -5.76 C 5.76 -2.579 3.181 0 0 0 " fill="#b31117"/>
<path transform="matrix(1,0,0,-1,261.4579,38.91913)" d="M 0 0 C -3.181 0 -5.76 -2.579 -5.76 -5.76 C -5.76 -8.941 -3.181 -11.52 0 -11.52 C 3.181 -11.52 5.76 -8.941 5.76 -5.76 C 5.76 -2.579 3.181 0 0 0 " fill="#008bbf"/>
<path transform="matrix(1,0,0,-1,239.4224,38.755617)" d="M 0 0 C -3.181 0 -5.76 -2.579 -5.76 -5.76 C -5.76 -8.941 -3.181 -11.52 0 -11.52 C 3.181 -11.52 5.76 -8.941 5.76 -5.76 C 5.76 -2.579 3.181 0 0 0 " fill="#9a016e"/>
</g>
</g> <!-- -->
</svg>
